<?xml version="1.0" standalone="no"?>
<!DOCTYPE svg PUBLIC "-//W3C//DTD SVG 20010904//EN"
 "http://www.w3.org/TR/2001/REC-SVG-20010904/DTD/svg10.dtd">
<svg version="1.0" xmlns="http://www.w3.org/2000/svg"
 width="1000.000000pt" height="1000.000000pt" viewBox="0 0 1000.000000 1000.000000"
 preserveAspectRatio="xMidYMid meet">

<g transform="translate(0.000000,1000.000000) scale(0.100000,-0.100000)"
fill="#000000" stroke="none">
<path d="M380 5003 l0 -4623 4625 0 4625 0 0 4620 c0 3689 -3 4620 -12 4621
-7 1 -2089 2 -4625 3 l-4613 1 0 -4622z m9195 -2 l0 -4575 -4560 -1 c-2508 0
-4566 1 -4572 3 -10 3 -13 928 -13 4578 l0 4574 4573 -2 4572 -3 0 -4574z"/>
<path d="M770 6812 l0 -2417 1808 -1808 1807 -1807 2418 0 2417 0 0 2418 0
2417 -1808 1808 -1807 1807 -2418 0 -2417 0 0 -2418z m6612 581 l1788 -1788 0
-2387 0 -2388 -2382 0 -2383 0 -1792 1792 -1793 1793 0 2382 0 2383 2387 0
2388 0 1787 -1787z"/>
<path d="M4398 8343 c-28 -34 -28 -55 3 -224 17 -93 29 -175 26 -183 -3 -7
-25 -16 -49 -20 -23 -4 -65 -13 -93 -21 -27 -8 -84 -24 -125 -35 -98 -28 -309
-106 -379 -140 -31 -15 -74 -36 -96 -46 -60 -27 -211 -112 -290 -163 -722
-465 -1208 -1218 -1345 -2081 -43 -272 -36 -706 15 -982 151 -809 625 -1521
1312 -1970 68 -45 299 -178 308 -178 2 0 47 -21 102 -46 259 -121 596 -213
913 -249 146 -16 542 -13 660 5 41 6 120 18 175 27 174 26 402 90 588 164 129
52 316 142 384 185 29 19 56 34 59 34 12 0 182 121 205 146 67 73 77 194 23
281 -41 67 -108 106 -188 111 -74 5 -113 -11 -236 -92 -127 -84 -387 -209
-543 -261 -134 -45 -352 -98 -452 -110 -27 -3 -81 -10 -120 -15 -38 -5 -167
-7 -285 -5 -290 4 -488 38 -755 127 -192 64 -499 220 -645 327 -278 205 -473
405 -644 661 -217 324 -346 661 -403 1056 -24 162 -23 523 1 684 94 635 398
1180 891 1597 39 32 81 66 95 76 99 69 202 137 207 137 3 0 17 9 32 19 48 35
245 129 361 174 184 70 394 128 409 111 4 -5 21 -82 36 -172 31 -178 49 -222
90 -222 37 0 65 30 359 384 272 326 287 350 272 411 -14 55 -78 98 -466 313
-25 14 -74 42 -110 62 -121 70 -145 83 -199 112 -63 33 -82 35 -103 11z"/>
<path d="M6016 7745 c-47 -17 -100 -66 -129 -120 -16 -29 -21 -57 -21 -105 1
-116 44 -170 189 -240 135 -64 168 -74 227 -67 126 15 214 120 211 249 -3 102
-49 162 -168 221 -157 79 -225 92 -309 62z"/>
<path d="M6781 7223 c-107 -56 -153 -167 -120 -287 14 -51 185 -229 247 -257
50 -23 138 -27 185 -8 100 40 164 137 154 239 -7 76 -26 111 -116 203 -99 103
-143 129 -229 134 -59 4 -74 1 -121 -24z"/>
<path d="M7386 6494 c-103 -33 -175 -142 -164 -252 7 -72 107 -272 156 -310
105 -83 268 -64 345 40 67 92 64 176 -12 328 -29 58 -64 118 -79 133 -60 64
-159 89 -246 61z"/>
<path d="M3620 6308 c-125 -35 -181 -189 -107 -295 14 -21 334 -346 711 -722
557 -556 688 -682 703 -676 18 7 170 56 578 186 121 38 312 99 425 135 358
114 631 201 765 243 150 48 201 78 233 141 73 145 -62 311 -219 270 -24 -6
-150 -45 -279 -87 -242 -78 -423 -135 -615 -196 -60 -19 -198 -63 -305 -97
-107 -34 -231 -73 -275 -87 -44 -14 -106 -34 -137 -44 -32 -11 -65 -19 -75
-19 -10 0 -277 259 -628 611 -369 370 -623 617 -644 626 -44 19 -88 23 -131
11z"/>
<path d="M7645 5591 c-46 -20 -101 -79 -121 -127 -17 -40 -18 -119 -3 -233 17
-138 50 -193 144 -237 132 -63 289 9 330 150 14 49 14 66 0 181 -16 132 -21
148 -62 203 -56 75 -195 106 -288 63z"/>
<path d="M7635 4659 c-50 -19 -84 -45 -117 -92 -24 -33 -78 -243 -78 -301 0
-46 30 -119 63 -154 106 -113 295 -95 377 35 38 59 85 256 76 319 -12 93 -76
169 -166 199 -57 18 -95 17 -155 -6z"/>
<path d="M7275 3779 c-57 -30 -71 -44 -132 -137 -75 -114 -93 -157 -93 -222 0
-176 190 -290 350 -210 46 23 65 46 139 158 83 127 97 185 66 271 -22 63 -51
98 -108 131 -67 38 -160 42 -222 9z"/>
<path d="M7595 7590 l1640 -1640 2 127 c2 71 -1 808 -5 1638 l-7 1510 -1635 3
-1635 3 1640 -1641z m360 1370 c5 0 19 10 32 22 l23 22 50 -49 50 -49 -27 -28
-27 -28 42 -43 42 -43 -40 -39 -40 -39 -137 137 -137 137 39 40 39 40 41 -40
c22 -22 45 -40 50 -40z m-83 -119 c120 -76 135 -227 30 -296 -91 -60 -213 -18
-263 90 -71 155 90 297 233 206z m366 -104 l42 -42 -67 -68 c-64 -65 -65 -68
-49 -86 17 -19 20 -18 88 51 l69 71 45 -44 c24 -24 44 -48 44 -54 0 -5 -81
-91 -180 -190 l-180 -179 -45 44 c-25 24 -45 48 -45 52 0 4 27 35 60 69 33 33
60 64 60 69 0 4 -7 13 -15 20 -13 11 -25 3 -77 -48 l-63 -62 -42 42 c-24 23
-43 47 -43 53 0 13 331 343 345 344 6 1 30 -18 53 -42z m-587 -191 c98 -55
245 -205 292 -297 33 -67 36 -129 6 -170 -25 -36 -68 -59 -109 -59 -73 0 -207
91 -309 209 -133 155 -151 245 -64 322 33 29 41 31 87 26 28 -3 72 -17 97 -31z
m1351 -668 l-42 -43 -180 180 -179 179 -26 -24 -26 -24 182 -182 181 -181 -43
-41 -44 -41 -90 90 c-86 85 -91 88 -108 72 -16 -17 -12 -23 90 -125 l107 -108
-39 -40 c-21 -22 -44 -40 -50 -40 -5 0 -129 119 -275 265 l-265 265 45 45 44
45 106 -104 c98 -98 106 -104 125 -90 18 14 15 18 -70 104 l-90 90 110 110
110 110 235 -235 235 -235 -43 -42z m-740 49 c103 -50 252 -197 313 -309 83
-153 -32 -281 -187 -208 -102 47 -277 223 -324 324 -30 65 -31 113 -1 157 43
63 115 77 199 36z"/>
<path d="M7779 8736 c-33 -16 -39 -70 -9 -86 59 -31 108 51 52 87 -15 9 -25 8
-43 -1z"/>
<path d="M7564 8426 c-4 -9 -1 -29 6 -46 14 -35 130 -154 189 -194 38 -26 43
-28 57 -14 14 14 14 19 1 44 -19 37 -106 132 -160 177 -53 43 -85 54 -93 33z"/>
<path d="M8184 7796 c-9 -22 21 -70 88 -142 104 -111 188 -156 188 -101 0 34
-44 90 -139 180 -82 77 -124 96 -137 63z"/>
<path d="M780 2417 l0 -1637 863 -1 c474 0 1212 -1 1640 -2 427 -2 776 0 775
3 -1 3 -739 741 -1640 1640 l-1638 1635 0 -1638z m1033 25 l229 -229 -45 -45
-46 -45 -83 84 c-55 56 -84 79 -86 68 -6 -29 20 -87 70 -152 l49 -66 -37 -38
c-21 -22 -42 -39 -46 -39 -25 0 -156 205 -171 270 -5 19 -20 30 -68 49 -69 26
-150 75 -205 123 l-35 31 42 43 42 43 46 -38 c54 -44 127 -81 161 -81 21 0 13
12 -60 85 l-84 85 39 40 c21 22 44 40 50 40 5 0 113 -103 238 -228z m-291
-171 l27 27 56 -56 55 -56 -27 -28 -27 -28 106 -108 107 -107 -46 -43 -46 -44
-270 270 -270 270 43 46 44 47 110 -109 111 -109 27 28z m-285 -43 c116 -50
300 -234 351 -351 19 -44 15 -115 -8 -147 -11 -15 -37 -35 -59 -43 -84 -34
-187 19 -334 172 -132 138 -173 233 -134 311 30 59 118 87 184 58z m1213 -433
l235 -235 -120 -120 -120 -120 -180 179 -180 180 -27 -24 c-16 -13 -28 -28
-28 -32 0 -4 82 -90 181 -189 l182 -182 -48 -47 -48 -46 -41 40 -42 41 -37
-37 -37 -38 52 -52 53 -53 -48 -48 -47 -47 -267 268 -268 267 47 47 48 48 53
-53 52 -52 38 37 37 37 -37 38 -37 38 122 123 122 122 180 -180 180 -180 27
28 28 27 -180 180 -179 180 44 45 c24 25 47 45 50 45 3 0 111 -106 240 -235z"/>
<path d="M1185 2089 c-16 -25 13 -69 110 -166 86 -86 108 -103 134 -103 26 0
31 4 31 24 0 57 -202 256 -259 256 -5 0 -13 -5 -16 -11z"/>
<path d="M1962 1413 l-33 -36 50 -51 51 -51 37 38 37 37 -49 50 c-27 27 -52
50 -55 49 -3 0 -20 -17 -38 -36z"/>
</g>
</svg>
