<?xml version="1.0" standalone="no"?>
<!DOCTYPE svg PUBLIC "-//W3C//DTD SVG 20010904//EN"
 "http://www.w3.org/TR/2001/REC-SVG-20010904/DTD/svg10.dtd">
<svg version="1.0" xmlns="http://www.w3.org/2000/svg"
 width="1000.000000pt" height="1000.000000pt" viewBox="0 0 1000.000000 1000.000000"
 preserveAspectRatio="xMidYMid meet">

<g transform="translate(0.000000,1000.000000) scale(0.100000,-0.100000)"
fill="#000000" stroke="none">
<path d="M380 5003 l0 -4623 4625 0 4625 0 0 4620 c0 3689 -3 4620 -12 4621
-7 1 -2089 2 -4625 3 l-4613 1 0 -4622z m9195 -2 l0 -4575 -4560 -1 c-2508 0
-4566 1 -4572 3 -10 3 -13 928 -13 4578 l0 4574 4573 -2 4572 -3 0 -4574z"/>
<path d="M770 6812 l0 -2417 1808 -1808 1807 -1807 2418 0 2417 0 0 2418 0
2417 -1808 1808 -1807 1807 -2418 0 -2417 0 0 -2418z m6612 581 l1788 -1788 0
-2387 0 -2388 -2382 0 -2383 0 -1792 1792 -1793 1793 0 2382 0 2383 2387 0
2388 0 1787 -1787z"/>
<path d="M5877 6686 c-769 -387 -1405 -710 -1413 -718 -8 -8 -17 -30 -20 -50
-10 -57 25 -83 319 -239 148 -78 265 -145 260 -149 -4 -4 -152 -97 -328 -207
-176 -110 -450 -282 -610 -382 -159 -100 -300 -193 -312 -207 -31 -34 -29 -77
5 -113 15 -16 156 -97 317 -181 160 -84 294 -156 298 -160 4 -4 -47 -54 -115
-112 -1081 -920 -1635 -1394 -1645 -1407 -7 -9 -13 -33 -13 -54 0 -31 7 -45
31 -68 17 -16 41 -29 53 -29 12 0 96 42 187 93 91 50 734 407 1428 792 694
385 1274 710 1287 722 28 25 33 86 10 116 -8 10 -139 85 -293 167 -153 82
-278 152 -278 156 0 4 286 191 635 416 349 225 645 420 658 434 27 30 29 80 4
111 -9 11 -123 76 -252 143 -129 68 -239 126 -243 130 -4 4 329 301 740 661
411 360 758 665 771 678 34 37 30 95 -9 132 -17 16 -41 29 -53 29 -11 -1 -650
-317 -1419 -704z m783 180 c0 -2 -240 -214 -534 -471 -296 -258 -537 -477
-540 -488 -11 -41 -6 -66 17 -90 12 -14 124 -78 250 -143 174 -91 224 -121
215 -129 -7 -7 -292 -191 -633 -410 -341 -218 -632 -409 -647 -423 -33 -31
-38 -88 -10 -121 9 -11 136 -84 282 -161 146 -78 268 -144 272 -148 6 -6
-1810 -1022 -1827 -1022 -3 0 146 129 332 288 703 598 811 692 817 707 11 30
6 73 -11 94 -10 11 -148 90 -308 175 -159 84 -290 157 -292 162 -1 5 275 182
614 394 338 212 624 396 634 409 26 33 25 86 -3 114 -13 12 -142 85 -287 161
l-264 139 104 53 c57 28 489 246 959 483 890 448 860 433 860 427z"/>
<path d="M4265 5528 c-83 -45 -406 -253 -424 -272 -33 -35 -32 -89 2 -123 48
-49 72 -41 293 97 226 141 264 173 264 220 0 64 -78 110 -135 78z"/>
<path d="M3633 5130 c-59 -36 -61 -125 -2 -155 43 -23 77 -18 110 14 47 48 35
121 -26 146 -43 19 -44 19 -82 -5z"/>
<path d="M6030 4187 c-14 -7 -33 -29 -43 -49 -16 -33 -17 -40 -3 -71 26 -65
97 -78 147 -28 33 33 37 67 14 111 -13 26 -23 32 -75 46 -8 2 -26 -2 -40 -9z"/>
<path d="M5575 3937 c-194 -108 -222 -126 -238 -159 -16 -33 -17 -40 -3 -71
16 -39 41 -57 82 -57 34 0 458 234 484 268 28 35 26 87 -5 117 -46 47 -77 37
-320 -98z"/>
<path d="M7595 7590 l1640 -1640 2 127 c2 71 -1 808 -5 1638 l-7 1510 -1635 3
-1635 3 1640 -1641z m595 1140 l-24 -20 39 -40 39 -40 29 28 28 27 56 -58 56
-59 -171 -171 -172 -172 -57 58 -58 58 34 30 33 31 -48 49 -48 49 37 38 c20
21 37 41 37 44 0 3 -19 2 -42 -4 -92 -20 -188 5 -299 78 -100 66 -101 67 -47
121 l46 46 39 -30 c96 -76 174 -94 253 -57 28 13 50 29 50 36 0 7 -39 52 -87
100 l-87 88 44 45 45 45 149 -149 150 -150 -24 -21z m-532 -153 c70 -30 126
-72 199 -150 92 -99 127 -165 128 -239 0 -68 -21 -103 -85 -135 -71 -37 -140
-19 -248 62 -112 84 -210 217 -226 308 -12 65 36 143 104 170 26 10 84 3 128
-16z m1062 -332 l154 -155 -44 -45 -44 -45 -54 52 -53 53 -26 -30 c-56 -67
-66 -130 -32 -197 l21 -41 -47 -46 c-45 -45 -46 -46 -62 -26 -28 37 -66 127
-71 172 -5 47 -7 49 -62 57 -56 8 -73 13 -123 36 -74 35 -77 44 -27 95 l43 44
40 -21 c54 -27 122 -21 177 16 60 39 61 52 7 103 -26 24 -47 47 -47 51 0 11
73 82 85 82 5 0 80 -70 165 -155z m285 -265 l50 -50 -175 -175 -175 -175 -55
55 -55 55 170 170 c93 93 174 170 180 170 6 0 33 -23 60 -50z m-552 -198 l227
-227 -118 -118 -117 -117 -55 55 -54 55 69 70 70 70 -175 175 -174 175 44 45
c24 25 47 45 50 45 3 0 108 -102 233 -228z"/>
<path d="M8035 8604 c-19 -14 -18 -16 28 -61 l47 -48 22 23 22 22 -39 40 c-43
44 -51 46 -80 24z"/>
<path d="M7574 8435 c-10 -26 4 -61 46 -111 50 -61 149 -144 172 -144 52 0 65
45 26 96 -95 127 -224 211 -244 159z"/>
<path d="M780 2417 l0 -1637 863 -1 c474 0 1212 -1 1640 -2 427 -2 776 0 775
3 -1 3 -739 741 -1640 1640 l-1638 1635 0 -1638z m1159 198 c16 -8 40 -28 54
-44 64 -76 39 -159 -85 -290 -141 -148 -231 -183 -315 -122 -55 40 -79 101
-63 159 13 49 107 171 173 225 102 84 173 105 236 72z m243 -231 l40 -36 -216
-216 -216 -217 -40 40 -40 41 212 212 c117 116 215 212 217 212 2 0 21 -16 43
-36z m311 -322 l168 -168 -31 -29 -30 -29 -130 129 c-111 111 -131 127 -144
116 -9 -8 -16 -17 -16 -21 0 -4 56 -62 125 -130 69 -68 125 -128 125 -134 0
-5 -12 -23 -27 -38 l-27 -28 -68 67 c-54 54 -70 65 -80 55 -11 -11 2 -28 65
-89 l78 -76 -28 -29 c-14 -15 -32 -28 -37 -28 -6 0 -97 85 -201 190 l-190 190
33 32 32 33 73 -73 c40 -39 78 -72 85 -72 25 0 10 28 -48 85 l-60 59 77 78
c43 43 80 78 83 78 3 0 81 -76 173 -168z m-1070 80 c29 -30 34 -41 25 -50 -10
-10 6 -31 75 -99 68 -69 89 -85 99 -75 10 10 21 3 54 -29 l42 -41 -75 -74
c-41 -41 -77 -74 -81 -74 -4 0 -81 74 -172 165 l-165 165 75 75 c41 41 77 75
80 75 3 0 23 -17 43 -38z m-41 -289 c104 -103 188 -193 188 -199 0 -6 -11 -21
-25 -34 l-26 -24 -78 78 c-43 43 -81 74 -84 69 -3 -5 21 -36 53 -68 33 -33 60
-63 60 -68 0 -9 -109 -117 -119 -117 -3 0 -62 56 -131 125 -68 68 -126 122
-129 119 -3 -2 54 -64 127 -137 l133 -133 -29 -27 -28 -27 -172 173 -172 172
60 60 60 60 128 -128 c70 -70 131 -124 135 -120 4 4 -50 65 -120 135 l-128
128 28 27 27 27 65 -64 c35 -35 68 -61 72 -57 4 4 -28 42 -70 85 l-77 77 27
28 c15 15 30 27 33 27 2 0 89 -84 192 -187z m726 40 c61 -31 189 -160 217
-220 27 -56 24 -97 -10 -133 -57 -59 -135 -32 -256 89 -121 121 -149 202 -90
262 37 37 70 37 139 2z m-183 -254 l110 -110 -92 -88 c-67 -64 -113 -99 -168
-126 -74 -36 -79 -37 -158 -33 -78 5 -185 40 -201 66 -3 5 10 24 29 42 30 29
38 32 57 22 101 -49 219 -20 333 83 l50 44 -68 68 c-37 38 -67 72 -67 76 0 9
52 66 60 67 3 0 55 -50 115 -111z m198 -185 l39 -36 -83 -84 -82 -85 29 -30
28 -29 -32 -32 -32 -32 -30 29 -30 29 -100 -99 -100 -99 -40 39 -40 39 212
213 c117 117 215 213 218 213 3 0 22 -17 43 -36z"/>
<path d="M1823 2493 c-91 -69 -193 -187 -193 -223 0 -11 9 -24 20 -30 17 -9
28 -7 53 9 50 31 205 194 212 224 17 66 -21 74 -92 20z"/>
<path d="M1370 2012 c0 -14 169 -176 177 -169 4 4 -31 46 -77 92 -79 80 -100
96 -100 77z"/>
<path d="M2040 1796 c0 -28 86 -126 144 -163 42 -27 63 -20 51 18 -12 37 -142
159 -170 159 -15 0 -25 -6 -25 -14z"/>
</g>
</svg>
