<?xml version="1.0" standalone="no"?>
<!DOCTYPE svg PUBLIC "-//W3C//DTD SVG 20010904//EN"
 "http://www.w3.org/TR/2001/REC-SVG-20010904/DTD/svg10.dtd">
<svg version="1.0" xmlns="http://www.w3.org/2000/svg"
 width="1000.000000pt" height="1000.000000pt" viewBox="0 0 1000.000000 1000.000000"
 preserveAspectRatio="xMidYMid meet">

<g transform="translate(0.000000,1000.000000) scale(0.100000,-0.100000)"
fill="#000000" stroke="none">
<path d="M380 5005 l0 -4625 4620 2 4620 3 0 4620 0 4620 -4620 3 -4620 2 0
-4625z m9190 0 l0 -4570 -4570 -3 -4570 -2 0 4575 0 4575 4570 -2 4570 -3 0
-4570z"/>
<path d="M770 6812 l0 -2417 1808 -1808 1807 -1807 2418 0 2417 0 0 2423 0
2422 -1803 1803 -1802 1802 -2423 0 -2422 0 0 -2418z m6607 576 l1793 -1793 0
-2382 0 -2383 -2382 0 -2383 0 -1792 1792 -1793 1793 0 2382 0 2383 2382 0
2383 0 1792 -1792z"/>
<path d="M3160 7429 c-210 -18 -427 -61 -635 -124 -133 -40 -265 -93 -265
-105 0 -4 21 -15 48 -25 71 -27 216 -101 305 -156 225 -140 361 -301 459 -544
44 -108 71 -206 137 -505 28 -124 59 -256 70 -295 91 -324 242 -616 454 -877
69 -85 83 -108 69 -112 -126 -36 -171 -48 -252 -65 -145 -30 -318 -45 -447
-37 -91 5 -113 4 -113 -7 0 -70 91 -482 149 -675 174 -576 470 -1063 810
-1336 332 -265 642 -400 1041 -451 119 -15 390 -17 495 -4 39 5 93 11 120 14
76 10 258 52 370 86 271 83 568 227 800 387 102 71 175 126 175 133 0 4 -46
-16 -102 -45 -173 -88 -327 -126 -513 -128 -252 -2 -465 66 -706 228 -115 77
-279 229 -390 363 -81 96 -224 299 -217 306 2 2 37 -1 78 -7 144 -20 281 7
310 61 23 44 12 81 -41 139 -474 519 -649 1138 -489 1728 24 90 59 184 68 183
4 0 28 -44 54 -97 93 -191 197 -285 383 -345 28 -9 127 -35 220 -56 94 -22
203 -51 244 -65 125 -44 269 -127 398 -232 l31 -25 15 53 c29 102 40 174 41
280 0 60 2 108 3 108 1 0 51 -9 110 -21 532 -101 907 -338 1086 -687 92 -179
122 -326 114 -554 -7 -206 -46 -364 -136 -547 -17 -36 -29 -66 -28 -68 12 -12
149 206 223 357 376 761 294 1572 -233 2307 -136 189 -408 492 -519 577 -22
17 -85 68 -140 114 -175 147 -545 412 -575 412 -6 0 -8 -8 -5 -17 18 -59 30
-189 30 -333 1 -149 -1 -172 -23 -240 -30 -89 -82 -148 -149 -168 -70 -21
-108 -8 -182 62 -562 537 -1236 896 -1910 1015 -276 49 -575 63 -840 40z"/>
<path d="M5962 9223 c1 -5 739 -744 1641 -1643 l1639 -1635 -6 529 c-3 291 -6
1030 -6 1643 l0 1113 -1635 0 c-899 0 -1634 -3 -1633 -7z m2200 -420 c126
-125 228 -232 228 -237 0 -6 -17 -27 -37 -48 l-37 -38 -88 87 c-82 81 -88 86
-88 60 0 -40 21 -83 73 -152 l46 -60 -41 -42 -41 -41 -44 51 c-53 62 -112 164
-125 218 -7 27 -16 39 -28 39 -42 0 -179 78 -254 146 l-29 26 40 40 41 41 63
-45 c35 -25 73 -48 84 -53 35 -13 85 -23 85 -17 0 4 -37 44 -82 89 l-82 83 39
40 c21 22 41 40 44 40 3 0 108 -102 233 -227z m-22 -568 l-45 -45 -270 270
-270 270 45 45 45 45 270 -270 270 -270 -45 -45z m-491 320 c77 -45 224 -192
270 -269 63 -106 49 -207 -35 -242 -41 -17 -99 -12 -149 13 -92 47 -266 222
-313 315 -30 61 -30 133 1 170 56 68 125 72 226 13z m1024 -294 c133 -66 260
-223 274 -338 16 -139 -94 -264 -230 -264 -52 0 -147 29 -177 55 -32 27 -39
24 -95 -31 l-56 -56 106 -107 105 -106 -45 -44 -45 -45 -267 268 -268 267 45
45 44 45 101 -100 c55 -55 105 -100 110 -100 5 0 33 23 61 51 l51 51 -38 74
c-64 124 -52 220 38 306 82 78 169 87 286 29z"/>
<path d="M7547 8453 c-26 -25 25 -106 122 -195 80 -73 113 -91 136 -74 12 9
15 19 10 36 -8 24 -152 179 -195 210 -31 22 -64 32 -73 23z"/>
<path d="M8524 8141 c-66 -28 -84 -118 -38 -187 68 -102 144 -151 226 -145 9
1 30 13 47 27 57 47 51 125 -15 203 -71 82 -164 125 -220 102z"/>
<path d="M780 2422 l0 -1642 933 -1 c512 0 1250 -1 1640 -2 389 -1 707 0 707
3 0 3 -738 743 -1640 1645 l-1640 1640 0 -1643z m859 114 l63 -64 -167 -323
c-92 -178 -171 -328 -176 -334 -10 -10 -119 91 -119 110 0 5 12 34 27 63 l27
52 -74 75 c-41 41 -78 75 -82 75 -4 0 -31 -14 -59 -31 l-52 -30 -59 58 c-32
31 -58 60 -58 63 0 7 31 24 305 165 116 60 242 125 280 146 39 21 72 38 75 38
3 1 34 -28 69 -63z m464 -464 l187 -187 -50 -50 -50 -49 -65 64 -65 65 -205
-205 -206 -205 -59 61 -59 61 204 204 205 203 -60 61 c-33 33 -60 65 -60 70 0
10 80 95 90 95 3 0 90 -84 193 -188z m285 -479 c-80 -81 -95 -101 -87 -115 15
-26 39 -23 187 28 l134 46 64 -63 c35 -35 60 -66 56 -70 -4 -4 -88 -31 -186
-61 l-180 -55 -53 -198 c-29 -110 -56 -201 -59 -204 -3 -3 -34 24 -69 60 l-63
65 44 149 c24 83 44 156 44 164 0 8 -8 23 -17 33 -16 18 -21 15 -123 -87
l-105 -105 -60 60 -60 60 255 255 255 255 60 -60 60 -60 -97 -97z"/>
<path d="M1450 2376 c-19 -13 -68 -42 -107 -65 -40 -23 -73 -45 -73 -49 0 -4
22 -29 48 -55 l48 -47 39 67 c22 38 48 84 58 103 11 19 23 39 28 45 11 11 12
25 2 24 -5 0 -24 -11 -43 -23z"/>
</g>
</svg>
