<?xml version="1.0" standalone="no"?>
<!DOCTYPE svg PUBLIC "-//W3C//DTD SVG 20010904//EN"
 "http://www.w3.org/TR/2001/REC-SVG-20010904/DTD/svg10.dtd">
<svg version="1.0" xmlns="http://www.w3.org/2000/svg"
 width="1000.000000pt" height="1000.000000pt" viewBox="0 0 1000.000000 1000.000000"
 preserveAspectRatio="xMidYMid meet">

<g transform="translate(0.000000,1000.000000) scale(0.100000,-0.100000)"
fill="#000000" stroke="none">
<path d="M380 5003 l0 -4623 4625 0 4625 0 0 4620 c0 3689 -3 4620 -12 4621
-7 1 -2089 2 -4625 3 l-4613 1 0 -4622z m9195 -2 l0 -4575 -4560 -1 c-2508 0
-4566 1 -4572 3 -10 3 -13 928 -13 4578 l0 4574 4573 -2 4572 -3 0 -4574z"/>
<path d="M770 6812 l0 -2417 1808 -1808 1807 -1807 2418 0 2417 0 0 2418 0
2417 -1808 1808 -1807 1807 -2418 0 -2417 0 0 -2418z m6612 581 l1788 -1788 0
-2387 0 -2388 -2382 0 -2383 0 -1792 1792 -1793 1793 0 2382 0 2383 2387 0
2388 0 1787 -1787z"/>
<path d="M4370 8420 c-19 -12 -43 -33 -54 -47 -10 -13 -43 -120 -72 -236 -30
-116 -60 -214 -67 -219 -6 -4 -97 -38 -201 -75 -159 -57 -196 -74 -227 -105
-63 -62 -63 -162 -1 -220 84 -78 164 -99 201 -52 37 47 22 93 -44 134 -19 12
-35 25 -35 28 0 4 39 21 88 39 289 104 338 125 357 146 13 15 38 96 74 240 29
120 57 217 62 215 4 -2 71 -83 148 -180 99 -125 149 -180 167 -184 29 -7 273
5 428 22 40 4 48 2 43 -10 -3 -8 -60 -95 -125 -193 -66 -98 -122 -188 -126
-200 -5 -16 18 -86 79 -238 48 -119 84 -219 81 -222 -2 -3 -96 21 -208 53
-112 32 -219 58 -239 58 -37 1 -34 3 -293 -216 -50 -43 -94 -78 -97 -78 -8 0
-19 142 -19 255 -1 156 -13 224 -41 246 -27 21 -67 24 -90 6 -39 -30 -41 -48
-29 -300 6 -133 15 -256 21 -274 22 -69 118 -115 193 -93 34 10 222 156 352
272 22 19 23 19 135 -12 63 -17 125 -35 139 -40 53 -19 155 -41 190 -42 67 -1
127 46 150 115 16 50 10 69 -77 285 -41 102 -73 192 -70 201 2 9 54 91 115
184 61 92 116 184 123 205 32 108 -68 211 -193 198 -23 -3 -83 -8 -133 -11
-49 -3 -126 -8 -170 -11 l-80 -5 -134 170 c-73 94 -144 177 -158 186 -41 27
-122 30 -163 5z"/>
<path d="M5701 7744 c-27 -35 -27 -75 2 -101 12 -11 63 -30 112 -43 452 -118
741 -409 821 -827 20 -105 23 -322 5 -438 -51 -334 -212 -688 -455 -995 -88
-112 -271 -296 -371 -375 -470 -366 -1027 -467 -1387 -252 -140 84 -225 186
-275 328 -165 475 239 1186 792 1394 304 115 603 42 703 -173 25 -52 27 -68
27 -177 0 -124 -9 -166 -58 -275 -30 -66 -97 -168 -149 -225 -57 -64 -70 -88
-62 -120 14 -58 90 -79 137 -38 50 45 162 205 207 297 65 133 90 232 90 361 0
164 -39 272 -134 373 -245 262 -695 254 -1096 -18 -190 -129 -392 -366 -506
-591 -59 -118 -80 -173 -109 -285 -99 -380 -10 -712 245 -915 234 -187 548
-249 895 -179 359 72 682 254 980 554 208 209 368 430 485 669 283 582 288
1143 15 1557 -57 86 -232 255 -326 316 -138 88 -276 148 -435 188 -92 24 -129
21 -153 -10z"/>
<path d="M3805 7163 c-46 -12 -339 -291 -486 -463 -407 -478 -656 -995 -735
-1525 -24 -165 -24 -460 0 -610 19 -122 46 -238 77 -332 32 -98 92 -130 144
-78 31 30 32 63 5 141 -32 91 -68 285 -81 430 -25 294 33 649 161 973 175 444
468 854 888 1241 125 116 136 133 116 185 -5 13 -56 48 -66 44 -2 -1 -12 -4
-23 -6z"/>
<path d="M5469 7038 c-41 -33 -47 -88 -14 -121 8 -9 45 -25 82 -38 128 -41
241 -108 330 -192 34 -32 50 -40 79 -40 50 0 89 42 80 87 -12 64 -180 190
-351 263 -113 47 -181 61 -206 41z"/>
<path d="M3854 6630 c-39 -15 -250 -258 -380 -436 -84 -116 -98 -156 -65 -191
43 -46 103 -40 138 14 75 118 226 304 355 439 57 60 68 77 68 106 0 60 -55 93
-116 68z"/>
<path d="M2292 5709 c-33 -12 -48 -46 -80 -179 -92 -376 -107 -740 -46 -1105
13 -78 19 -94 45 -118 37 -34 71 -31 108 10 25 29 26 19 -4 198 -8 50 -18 167
-21 260 -10 256 15 483 80 742 30 117 32 141 11 170 -16 23 -61 33 -93 22z"/>
<path d="M7382 5660 c-41 -9 -64 -31 -190 -177 -111 -129 -93 -122 -272 -98
-136 19 -214 19 -250 0 -45 -23 -74 -71 -74 -124 -1 -41 10 -65 92 -205 54
-91 92 -165 89 -175 -3 -9 -37 -86 -76 -171 -39 -85 -71 -166 -71 -179 0 -50
38 -108 86 -132 51 -24 58 -24 298 33 70 17 131 27 135 22 16 -22 248 -232
269 -243 33 -18 106 -16 139 4 60 35 71 66 87 244 9 91 16 173 16 182 0 17 37
42 180 121 111 62 126 71 148 91 29 27 46 86 38 129 -12 66 -48 93 -226 168
-90 38 -166 72 -167 77 -2 4 -19 85 -38 178 -21 100 -42 180 -53 194 -41 56
-95 76 -160 61z m68 -352 c25 -126 39 -177 54 -194 12 -12 91 -52 176 -87 85
-36 156 -70 158 -75 1 -4 -10 -15 -25 -23 -85 -43 -271 -153 -286 -168 -16
-15 -22 -50 -35 -200 -8 -99 -19 -181 -24 -181 -4 0 -65 53 -134 118 -69 64
-137 120 -150 124 -13 3 -60 -3 -106 -13 -46 -10 -123 -28 -172 -39 -49 -12
-91 -18 -94 -16 -3 3 27 75 67 160 41 90 71 168 71 186 0 23 -27 77 -90 183
-50 82 -89 152 -86 154 2 2 82 -5 178 -16 96 -11 184 -18 195 -15 12 3 74 66
138 140 64 74 120 134 124 134 4 0 23 -77 41 -172z"/>
<path d="M3571 5573 c-28 -23 -38 -72 -47 -228 -20 -367 98 -694 341 -940 185
-187 393 -299 680 -366 122 -28 433 -35 580 -13 359 56 704 206 1022 446 104
77 262 220 280 252 29 50 2 103 -58 112 -35 6 -41 2 -115 -67 -239 -221 -520
-397 -789 -492 -96 -35 -228 -71 -290 -81 -16 -3 -61 -10 -100 -16 -100 -16
-324 -14 -430 5 -217 38 -325 80 -496 192 -336 220 -506 606 -459 1042 11 107
11 115 -8 140 -24 33 -79 40 -111 14z"/>
<path d="M4486 5129 c-41 -33 -36 -82 13 -129 46 -44 122 -83 201 -104 89 -24
313 -16 420 14 96 27 130 53 130 100 0 32 -37 80 -62 80 -7 0 -59 -12 -117
-26 -91 -23 -119 -26 -220 -22 -128 5 -180 21 -249 78 -43 35 -79 38 -116 9z"/>
<path d="M3132 4370 c-63 -38 -67 -55 -108 -376 l-6 -52 -142 -72 c-77 -40
-155 -83 -173 -97 -38 -28 -59 -85 -49 -135 11 -61 51 -93 206 -164 80 -37
150 -72 157 -78 6 -6 23 -85 38 -175 33 -207 46 -233 127 -262 65 -22 101 -3
222 119 59 60 114 118 122 130 19 27 29 27 179 2 222 -38 281 -27 320 59 26
59 16 94 -76 264 l-81 150 82 168 c72 146 82 173 77 204 -8 47 -30 81 -70 106
-26 16 -45 19 -96 16 -55 -3 -67 -7 -87 -31 -13 -15 -24 -40 -24 -55 0 -35 37
-71 73 -71 15 0 27 -3 27 -8 0 -4 -34 -73 -75 -154 -43 -84 -75 -159 -75 -176
0 -16 19 -65 43 -108 104 -188 118 -216 114 -220 -2 -3 -81 7 -175 21 -131 20
-176 24 -192 15 -19 -10 -99 -91 -207 -210 -23 -25 -44 -43 -47 -40 -3 3 -17
78 -31 165 -14 88 -30 170 -35 182 -5 13 -35 34 -72 51 -35 17 -107 51 -160
76 -54 25 -98 50 -98 55 0 5 15 15 33 23 89 37 278 142 288 159 5 11 19 95 31
187 11 92 23 169 25 172 2 2 61 -53 131 -123 117 -116 130 -127 164 -127 57 0
95 60 69 108 -17 31 -291 297 -319 309 -41 18 -93 15 -130 -7z"/>
<path d="M6823 4068 c-179 -169 -298 -274 -445 -392 -659 -529 -1300 -803
-1843 -790 -155 4 -257 21 -378 61 -120 41 -149 39 -176 -9 -19 -33 -7 -73 29
-99 39 -29 185 -75 295 -94 100 -17 389 -24 450 -11 17 3 50 8 75 11 77 9 151
24 269 55 585 154 1213 551 1862 1178 102 98 118 126 93 173 -15 30 -33 39
-75 39 -23 0 -53 -24 -156 -122z"/>
<path d="M6055 3962 c-11 -2 -60 -34 -110 -71 -347 -259 -716 -448 -1015 -521
-110 -27 -139 -39 -150 -61 -17 -31 -11 -69 16 -96 23 -23 30 -25 77 -19 71 9
269 70 400 123 176 70 446 218 616 337 28 20 75 52 104 72 28 20 76 57 105 81
43 37 52 50 52 77 0 48 -49 88 -95 78z"/>
<path d="M7595 7590 l1640 -1640 2 127 c2 71 -1 808 -5 1638 l-7 1510 -1635 3
-1635 3 1640 -1641z m380 1320 l-39 -40 47 -47 47 -47 40 39 40 39 50 -49 c28
-27 50 -54 50 -60 0 -6 -70 -80 -155 -165 l-155 -155 -157 158 -158 157 160
160 160 160 55 -55 54 -55 -39 -40z m367 -267 c26 -26 48 -52 48 -57 0 -6 -26
-36 -57 -68 l-57 -58 37 -38 37 -38 -48 -47 -48 -47 -37 37 -37 38 -63 -63
-62 -62 -58 57 -57 58 167 167 c92 93 172 168 178 168 5 0 31 -21 57 -47z
m-667 -71 c75 -40 236 -204 268 -274 46 -97 31 -175 -43 -230 -84 -62 -239 9
-382 175 -97 113 -126 195 -94 270 40 94 140 118 251 59z m1043 -315 l53 -54
-57 -59 c-91 -95 -113 -166 -78 -255 l17 -40 -44 -45 c-39 -40 -44 -42 -60
-28 -26 23 -69 128 -76 183 l-6 49 -46 5 c-25 3 -53 7 -61 9 -47 13 -69 23
-107 47 l-43 26 46 46 46 47 37 -15 c24 -10 54 -14 93 -10 62 5 117 38 187
111 19 20 38 36 41 36 3 0 29 -24 58 -53z m287 -277 l50 -50 -165 -165 c-91
-91 -168 -164 -171 -163 -4 2 -30 25 -59 52 l-52 49 163 163 c90 90 168 164
174 164 6 0 33 -23 60 -50z m-535 -185 l225 -225 -123 -122 -122 -123 -227
227 -228 228 120 120 c66 66 122 120 125 120 3 0 106 -101 230 -225z"/>
<path d="M7817 8752 c-15 -15 -27 -33 -27 -38 0 -13 73 -84 86 -84 6 0 23 14
39 30 l29 30 -44 45 c-24 25 -47 45 -50 45 -4 0 -18 -13 -33 -28z"/>
<path d="M7573 8453 c-44 -17 19 -122 126 -209 69 -57 103 -67 121 -34 13 25
-2 57 -61 124 -83 94 -147 135 -186 119z"/>
<path d="M8227 7792 c-15 -15 -27 -32 -27 -38 0 -13 213 -224 226 -224 11 0
70 58 63 62 -3 2 -56 54 -120 116 l-115 112 -27 -28z"/>
<path d="M780 2417 l0 -1637 863 -1 c474 0 1212 -1 1640 -2 427 -2 776 0 775
3 -1 3 -739 741 -1640 1640 l-1638 1635 0 -1638z m652 174 c14 -31 18 -53 13
-80 -20 -109 -183 -268 -283 -275 -60 -4 -102 20 -200 117 l-92 92 182 182
183 183 88 -88 c52 -51 97 -105 109 -131z m183 -161 l41 -40 -183 -182 -183
-182 -42 42 -43 42 180 180 c99 99 182 180 185 180 2 0 23 -18 45 -40z m202
-196 c95 -55 138 -175 94 -262 -11 -22 -26 -44 -32 -48 -6 -3 -29 11 -52 34
l-40 40 17 35 c27 58 -11 117 -75 117 -55 0 -199 -143 -199 -197 0 -35 16 -61
48 -77 28 -14 40 -13 80 7 20 10 28 6 64 -30 46 -47 44 -58 -16 -87 -69 -33
-143 -16 -216 50 -54 49 -70 82 -70 144 0 71 34 133 117 210 107 101 187 119
280 64z m428 -504 l-35 -35 -73 73 -73 72 -34 -35 -34 -35 62 -63 62 -63 -33
-32 c-18 -18 -37 -32 -42 -32 -5 0 -35 26 -67 57 l-58 57 -40 -39 -40 -39 70
-71 c38 -39 70 -74 70 -78 0 -5 -13 -22 -30 -40 l-30 -32 -120 120 -120 120
182 182 183 183 117 -117 118 -118 -35 -35z m2 -252 c46 -46 83 -87 83 -93 0
-6 -14 -24 -30 -40 l-30 -29 -90 89 -90 89 32 33 c18 18 34 33 37 33 3 0 43
-37 88 -82z m382 -57 c68 -35 114 -127 97 -195 -7 -28 -59 -91 -87 -106 -10
-6 -44 -13 -76 -16 -32 -3 -71 -7 -88 -9 -16 -2 -50 -4 -75 -4 l-44 -1 68 -69
69 -69 -34 -31 -34 -30 -117 117 c-65 64 -118 120 -118 125 0 4 11 19 24 32
26 26 37 28 226 41 127 9 132 10 158 39 27 31 28 57 5 77 -22 19 -48 16 -74
-8 -19 -17 -21 -16 -62 24 l-42 42 26 26 c27 27 78 44 115 39 12 -2 40 -13 63
-24z"/>
<path d="M1136 2539 l-110 -110 41 -41 c37 -36 45 -40 75 -34 39 7 135 88 167
140 31 49 27 76 -17 119 -21 20 -40 37 -42 37 -3 0 -54 -50 -114 -111z"/>
</g>
</svg>
