<?xml version="1.0" standalone="no"?>
<!DOCTYPE svg PUBLIC "-//W3C//DTD SVG 20010904//EN"
 "http://www.w3.org/TR/2001/REC-SVG-20010904/DTD/svg10.dtd">
<svg version="1.0" xmlns="http://www.w3.org/2000/svg"
 width="1000.000000pt" height="1000.000000pt" viewBox="0 0 1000.000000 1000.000000"
 preserveAspectRatio="xMidYMid meet">

<g transform="translate(0.000000,1000.000000) scale(0.100000,-0.100000)"
fill="#000000" stroke="none">
<path d="M380 5003 l0 -4623 4625 0 4625 0 0 4620 c0 3689 -3 4620 -12 4621
-7 1 -2089 2 -4625 3 l-4613 1 0 -4622z m9195 -2 l0 -4575 -4560 -1 c-2508 0
-4566 1 -4572 3 -10 3 -13 928 -13 4578 l0 4574 4573 -2 4572 -3 0 -4574z"/>
<path d="M770 6812 l0 -2417 1808 -1808 1807 -1807 2418 0 2417 0 0 2418 0
2417 -1808 1808 -1807 1807 -2418 0 -2417 0 0 -2418z m6612 581 l1788 -1788 0
-2387 0 -2388 -2382 0 -2383 0 -1792 1792 -1793 1793 0 2382 0 2383 2387 0
2388 0 1787 -1787z"/>
<path d="M3204 8420 c-60 -24 -83 -113 -44 -163 11 -14 57 -54 102 -88 137
-105 212 -172 373 -333 176 -177 274 -295 393 -476 139 -210 227 -406 283
-630 30 -123 37 -345 15 -474 -43 -254 -170 -508 -361 -726 -142 -162 -277
-342 -370 -495 -256 -421 -377 -854 -362 -1295 11 -326 80 -598 228 -906 159
-332 831 -1220 950 -1255 50 -16 105 10 126 60 93 214 167 326 295 448 150
141 321 240 553 318 773 262 1317 597 1680 1035 409 493 558 1121 409 1715
-37 149 -67 181 -159 176 -12 0 -68 -41 -125 -89 -125 -106 -303 -243 -308
-237 -2 2 10 41 28 87 177 459 157 950 -61 1476 -99 238 -317 614 -457 789
-177 220 -267 318 -303 333 -39 16 -91 5 -119 -25 -22 -23 -25 -40 -36 -178
-11 -147 -39 -361 -53 -414 -6 -23 -10 -18 -34 44 -33 84 -118 229 -183 314
-291 378 -848 680 -1585 858 -335 81 -820 154 -875 131z m500 -275 c76 -11
243 -47 391 -85 480 -124 872 -300 1152 -518 173 -135 321 -325 394 -502 76
-187 95 -433 51 -656 -30 -152 -59 -232 -156 -429 -201 -406 -459 -781 -763
-1108 -72 -76 -79 -92 -73 -152 3 -28 48 -73 80 -80 40 -9 88 16 141 71 161
168 384 453 514 654 37 58 75 116 85 130 66 98 258 469 310 600 115 290 250
810 295 1129 8 63 17 116 19 118 1 2 18 -16 37 -40 209 -260 397 -581 499
-852 92 -245 132 -457 132 -690 1 -332 -90 -614 -288 -897 -110 -155 -98 -146
-490 -417 -100 -69 -235 -161 -299 -205 -91 -60 -120 -86 -131 -113 -29 -68
21 -143 95 -143 27 0 58 13 112 48 94 60 449 301 539 367 106 77 183 129 330
223 184 118 395 269 566 406 13 11 26 17 29 15 31 -31 43 -361 20 -539 -105
-824 -765 -1451 -1961 -1863 -239 -82 -384 -155 -526 -264 -143 -109 -281
-261 -363 -401 -20 -35 -40 -62 -45 -60 -7 3 -146 167 -185 219 -11 15 -60 80
-109 145 -90 119 -143 192 -183 250 -12 17 -53 76 -91 130 -137 196 -243 411
-306 619 -105 345 -107 735 -8 1080 105 359 277 659 597 1035 141 165 221 284
294 435 217 445 199 931 -50 1428 -49 98 -170 292 -228 368 -24 30 -59 77 -80
104 -58 77 -151 178 -287 313 -116 115 -142 147 -111 137 6 -2 29 -7 51 -10z"/>
<path d="M5266 3915 c-161 -84 -201 -137 -161 -214 18 -36 75 -64 112 -55 15
4 63 27 106 52 56 32 83 54 94 77 46 96 -55 190 -151 140z"/>
<path d="M7595 7590 l1640 -1640 2 127 c2 71 -1 808 -5 1638 l-7 1510 -1635 3
-1635 3 1640 -1641z m375 1395 l54 -55 -94 -95 -94 -95 34 -37 c19 -21 36 -40
38 -42 1 -3 47 39 101 93 l98 98 56 -59 57 -58 -275 -275 -275 -274 -150 149
c-83 82 -150 154 -150 160 0 10 530 545 540 545 3 0 30 -25 60 -55z m382 -352
c26 -26 48 -52 48 -58 0 -5 -133 -143 -295 -305 l-295 -295 -55 55 -55 55 297
297 c164 164 300 298 303 298 2 0 26 -21 52 -47z m205 -284 l45 -41 27 26 27
26 49 -50 49 -50 -27 -27 -27 -27 40 -41 40 -41 -40 -39 -40 -39 -135 134
-135 134 37 38 c20 21 39 38 41 38 3 0 25 -18 49 -41z m-39 -152 c42 -27 87
-87 97 -130 16 -64 -28 -147 -96 -183 -110 -57 -279 81 -255 208 8 42 58 104
100 123 41 19 106 11 154 -18z m362 -102 l44 -45 -62 -63 c-65 -65 -71 -77
-49 -95 10 -9 28 4 77 53 36 36 70 65 76 65 6 0 31 -21 54 -46 l43 -46 -179
-179 c-98 -99 -184 -179 -189 -179 -6 0 -31 20 -55 45 l-44 45 69 70 c66 67
68 70 50 84 -19 14 -25 10 -83 -47 l-62 -62 -47 48 -48 47 175 175 c96 96 177
175 180 175 3 0 26 -20 50 -45z m-594 -190 c55 -26 151 -107 223 -190 123
-140 139 -258 44 -317 -40 -24 -93 -26 -144 -4 -93 39 -272 214 -324 317 -46
91 -27 176 48 209 49 22 81 19 153 -15z"/>
<path d="M7652 8557 l-82 -83 40 -39 40 -39 82 79 c45 44 85 81 87 83 5 3 -70
82 -79 82 -3 0 -43 -37 -88 -83z"/>
<path d="M8407 8082 c-10 -10 -17 -26 -17 -35 0 -21 27 -47 50 -47 10 0 26 7
34 16 30 30 9 84 -33 84 -10 0 -25 -8 -34 -18z"/>
<path d="M8204 7776 c-9 -23 32 -80 110 -158 75 -75 130 -108 147 -91 20 20 2
56 -65 129 -102 112 -177 159 -192 120z"/>
<path d="M780 2417 l0 -1637 863 -1 c474 0 1212 -1 1640 -2 427 -2 776 0 775
3 -1 3 -739 741 -1640 1640 l-1638 1635 0 -1638z m930 130 l51 -49 -56 -59
c-58 -61 -94 -126 -95 -170 0 -15 7 -50 17 -78 l16 -52 -38 -39 c-22 -22 -44
-40 -50 -40 -23 0 -73 102 -89 183 l-12 60 -40 3 c-70 7 -193 55 -201 80 -4
13 74 94 91 94 6 0 18 -6 25 -12 7 -8 37 -13 76 -12 57 0 71 5 117 37 30 20
69 52 88 72 19 19 37 34 41 33 4 -2 30 -25 59 -51z m270 -262 l54 -55 -57 -58
c-31 -32 -57 -62 -57 -67 0 -5 16 -25 35 -45 l35 -36 -45 -44 -45 -44 -40 39
-40 39 -63 -62 -63 -62 -52 53 c-29 29 -52 57 -52 62 0 10 320 335 330 335 3
0 30 -25 60 -55z m-657 -67 c80 -43 213 -175 253 -253 45 -85 50 -129 22 -184
-29 -57 -64 -82 -121 -88 -65 -8 -161 42 -256 132 -167 157 -210 296 -119 382
40 37 50 41 112 42 36 1 63 -7 109 -31z m1054 -445 l-47 -48 -65 65 -65 64
-65 -64 -65 -64 62 -63 62 -63 -44 -45 -44 -45 -63 62 -63 63 -72 -73 -73 -72
53 -53 c30 -30 70 -64 91 -75 l37 -21 220 219 c120 121 224 220 229 220 6 0
31 -20 55 -45 l44 -45 -107 -108 c-96 -97 -106 -110 -92 -122 14 -12 30 0 126
96 l109 109 51 -51 51 -51 -296 -297 c-163 -163 -299 -296 -303 -296 -11 0
-93 83 -93 94 0 6 61 72 136 147 120 120 133 137 119 149 -14 12 -32 -3 -150
-120 l-135 -134 -45 44 c-51 50 -53 59 -25 85 19 17 19 18 -18 36 -20 10 -84
66 -142 124 l-105 105 275 275 275 275 115 -115 115 -115 -48 -47z"/>
<path d="M1218 2099 c-22 -13 -23 -47 -2 -79 31 -46 139 -151 171 -166 59 -29
97 -1 73 55 -17 42 -144 170 -186 187 -39 16 -34 16 -56 3z"/>
</g>
</svg>
