<?xml version="1.0" standalone="no"?>
<!DOCTYPE svg PUBLIC "-//W3C//DTD SVG 20010904//EN"
 "http://www.w3.org/TR/2001/REC-SVG-20010904/DTD/svg10.dtd">
<svg version="1.0" xmlns="http://www.w3.org/2000/svg"
 width="1000.000000pt" height="1000.000000pt" viewBox="0 0 1000.000000 1000.000000"
 preserveAspectRatio="xMidYMid meet">

<g transform="translate(0.000000,1000.000000) scale(0.100000,-0.100000)"
fill="#000000" stroke="none">
<path d="M380 5003 l0 -4623 4625 0 4625 0 0 4620 c0 3689 -3 4620 -12 4621
-7 1 -2089 2 -4625 3 l-4613 1 0 -4622z m9195 -2 l0 -4575 -4560 -1 c-2508 0
-4566 1 -4572 3 -10 3 -13 928 -13 4578 l0 4574 4573 -2 4572 -3 0 -4574z"/>
<path d="M770 6812 l0 -2417 1808 -1808 1807 -1807 2418 0 2417 0 0 2418 0
2417 -1808 1808 -1807 1807 -2418 0 -2417 0 0 -2418z m6612 581 l1788 -1788 0
-2387 0 -2388 -2382 0 -2383 0 -1792 1792 -1793 1793 0 2382 0 2383 2387 0
2388 0 1787 -1787z"/>
<path d="M4241 8419 c-24 -5 -63 -21 -85 -35 -23 -15 -562 -548 -1198 -1185
-1276 -1275 -1208 -1200 -1208 -1328 0 -83 14 -128 59 -187 54 -70 125 -106
221 -112 67 -4 85 -1 131 20 30 14 80 49 112 78 l58 53 117 -115 c135 -131
217 -199 369 -301 129 -87 164 -107 309 -180 179 -91 407 -171 609 -216 89
-19 105 -22 240 -42 39 -6 180 -14 315 -19 135 -5 259 -13 275 -18 102 -32
193 -110 240 -206 28 -58 29 -65 37 -270 9 -271 22 -396 59 -578 100 -498 339
-949 698 -1321 l124 -128 -56 -57 c-67 -69 -97 -131 -100 -210 -2 -77 18 -139
62 -198 73 -97 215 -139 333 -98 50 17 126 90 1235 1198 1324 1321 1229 1216
1221 1361 -5 92 -26 140 -85 197 -58 57 -125 83 -208 82 -92 -1 -155 -29 -225
-99 l-54 -54 -95 92 c-332 319 -684 533 -1090 661 -115 36 -360 90 -461 101
-30 4 -68 8 -85 10 -16 3 -120 7 -230 10 -252 7 -268 9 -341 44 -74 36 -145
109 -181 186 -26 57 -28 69 -35 270 -14 406 -56 649 -165 955 -74 208 -260
545 -392 710 -69 87 -210 245 -265 299 l-55 55 37 40 c69 75 91 112 107 174
55 212 -131 402 -354 361z m115 -208 c39 -24 59 -76 45 -114 -15 -38 -2305
-2325 -2333 -2329 -39 -6 -66 3 -93 29 -19 20 -25 36 -25 72 l0 46 1143 1143
c628 629 1156 1150 1172 1158 41 18 55 17 91 -5z m62 -618 c299 -323 466 -599
587 -975 80 -247 112 -451 121 -765 3 -132 11 -242 20 -278 45 -192 196 -352
394 -418 44 -15 106 -20 300 -27 135 -5 293 -15 351 -24 542 -78 1000 -305
1414 -699 l100 -96 -915 -915 c-503 -504 -920 -916 -926 -916 -15 0 -193 184
-266 276 -204 252 -376 582 -457 874 -62 221 -88 411 -97 690 -3 121 -12 242
-20 277 -43 197 -200 361 -403 423 -50 16 -102 21 -250 25 -305 7 -439 22
-641 72 -431 104 -811 314 -1141 631 l-121 115 919 919 c505 505 921 918 925
918 3 0 51 -48 106 -107z m3773 -3212 c23 -24 29 -38 29 -73 l0 -43 -1158
-1157 c-1054 -1055 -1160 -1158 -1189 -1158 -59 0 -87 22 -107 83 -3 9 -1 30
5 45 11 29 2254 2281 2304 2313 44 28 81 24 116 -10z"/>
<path d="M4644 6610 c-12 -4 -61 -46 -110 -92 -218 -206 -409 -336 -579 -393
-41 -14 -82 -25 -90 -25 -7 0 -45 -12 -84 -26 -98 -36 -178 -111 -228 -211
-35 -71 -37 -80 -37 -171 1 -86 4 -104 31 -162 43 -93 60 -105 198 -139 202
-51 289 -62 535 -71 184 -7 251 -13 310 -29 92 -25 199 -78 265 -131 115 -92
128 -100 162 -100 50 0 93 45 93 97 0 32 -10 50 -60 111 -75 92 -125 181 -158
280 -26 76 -26 81 -32 497 -4 260 -11 432 -18 453 -17 52 -49 98 -77 110 -30
14 -90 15 -121 2z m16 -599 c0 -335 2 -368 37 -520 5 -21 3 -23 -18 -17 -98
27 -185 37 -359 42 -107 3 -229 9 -270 15 -72 9 -298 56 -312 65 -4 3 -13 22
-19 43 -26 86 18 186 103 234 24 13 84 34 133 46 179 44 416 184 623 370 37
34 70 61 75 61 4 0 7 -153 7 -339z"/>
<path d="M5229 4941 c-23 -23 -29 -38 -29 -71 0 -37 6 -48 58 -99 39 -39 68
-60 89 -63 66 -9 112 30 113 98 0 37 -6 46 -64 102 -55 53 -70 62 -101 62 -27
0 -44 -8 -66 -29z"/>
<path d="M5585 4587 c-37 -37 -44 -70 -24 -110 17 -33 80 -97 113 -114 63 -33
141 15 141 88 0 35 -7 46 -61 99 -79 80 -117 89 -169 37z"/>
<path d="M6433 4585 c-170 -38 -236 -85 -509 -358 -224 -225 -232 -235 -278
-327 -74 -150 -88 -268 -66 -545 5 -66 16 -147 25 -180 32 -124 146 -314 215
-358 64 -41 45 -58 828 725 682 683 722 725 722 758 0 45 -17 69 -88 123 -126
96 -256 149 -402 165 -136 14 -377 12 -447 -3z m522 -213 c33 -10 84 -31 114
-46 l54 -28 -622 -621 -622 -622 -18 24 c-73 96 -115 444 -75 621 28 125 58
166 293 401 297 296 307 301 611 295 166 -4 217 -8 265 -24z"/>
<path d="M7595 7590 l1640 -1640 2 127 c2 71 -1 808 -5 1638 l-7 1510 -1635 3
-1635 3 1640 -1641z m360 1370 c5 0 19 10 32 22 l23 22 50 -49 50 -49 -27 -28
-27 -28 42 -43 42 -43 -40 -39 -40 -39 -137 137 -137 137 39 40 39 40 41 -40
c22 -22 45 -40 50 -40z m-83 -119 c120 -76 135 -227 30 -296 -91 -60 -213 -18
-263 90 -71 155 90 297 233 206z m366 -104 l42 -42 -67 -68 c-64 -65 -65 -68
-49 -86 17 -19 20 -18 88 51 l69 71 45 -44 c24 -24 44 -48 44 -54 0 -5 -81
-91 -180 -190 l-180 -179 -45 44 c-25 24 -45 48 -45 52 0 4 27 35 60 69 33 33
60 64 60 69 0 4 -7 13 -15 20 -13 11 -25 3 -77 -48 l-63 -62 -42 42 c-24 23
-43 47 -43 53 0 13 331 343 345 344 6 1 30 -18 53 -42z m-587 -191 c98 -55
245 -205 292 -297 33 -67 36 -129 6 -170 -25 -36 -68 -59 -109 -59 -73 0 -207
91 -309 209 -133 155 -151 245 -64 322 33 29 41 31 87 26 28 -3 72 -17 97 -31z
m1351 -668 l-42 -43 -180 180 -179 179 -26 -24 -26 -24 182 -182 181 -181 -43
-41 -44 -41 -90 90 c-86 85 -91 88 -108 72 -16 -17 -12 -23 90 -125 l107 -108
-39 -40 c-21 -22 -44 -40 -50 -40 -5 0 -129 119 -275 265 l-265 265 45 45 44
45 106 -104 c98 -98 106 -104 125 -90 18 14 15 18 -70 104 l-90 90 110 110
110 110 235 -235 235 -235 -43 -42z m-740 49 c103 -50 252 -197 313 -309 83
-153 -32 -281 -187 -208 -102 47 -277 223 -324 324 -30 65 -31 113 -1 157 43
63 115 77 199 36z"/>
<path d="M7779 8736 c-33 -16 -39 -70 -9 -86 59 -31 108 51 52 87 -15 9 -25 8
-43 -1z"/>
<path d="M7564 8426 c-4 -9 -1 -29 6 -46 14 -35 130 -154 189 -194 38 -26 43
-28 57 -14 14 14 14 19 1 44 -19 37 -106 132 -160 177 -53 43 -85 54 -93 33z"/>
<path d="M8184 7796 c-9 -22 21 -70 88 -142 104 -111 188 -156 188 -101 0 34
-44 90 -139 180 -82 77 -124 96 -137 63z"/>
<path d="M780 2417 l0 -1637 863 -1 c474 0 1212 -1 1640 -2 427 -2 776 0 775
3 -1 3 -739 741 -1640 1640 l-1638 1635 0 -1638z m882 166 c60 -59 108 -112
108 -117 0 -13 -71 -86 -84 -86 -6 0 -36 26 -68 57 l-58 58 -182 -182 -183
-183 45 -46 c47 -49 111 -94 132 -94 7 0 112 99 233 220 l220 219 48 -46 49
-46 -44 -44 c-24 -25 -72 -74 -108 -109 -60 -59 -64 -65 -49 -80 16 -15 25 -8
122 90 58 58 110 106 114 106 12 0 93 -83 93 -95 0 -6 -133 -143 -295 -305
l-295 -295 -45 45 c-25 24 -45 50 -45 58 0 7 59 72 130 144 72 72 130 134 130
138 0 4 -6 12 -13 18 -10 8 -44 -21 -147 -124 l-134 -135 -48 48 -48 47 26 27
25 27 -32 11 c-32 11 -249 216 -249 235 0 10 530 546 540 546 2 0 53 -48 112
-107z m691 -691 l148 -148 -93 -90 c-152 -147 -229 -201 -341 -239 -57 -19
-155 -26 -209 -14 -58 13 -168 56 -196 77 l-22 17 50 50 50 49 33 -16 c99 -52
237 -39 343 32 27 18 77 60 112 94 l62 61 -92 92 -92 93 44 45 c24 25 47 45
50 45 3 0 72 -67 153 -148z m287 -267 l55 -55 -295 -295 c-162 -162 -299 -295
-305 -295 -13 0 -105 92 -105 105 0 10 580 595 590 595 3 0 30 -25 60 -55z"/>
</g>
</svg>
