<?xml version="1.0" standalone="no"?>
<!DOCTYPE svg PUBLIC "-//W3C//DTD SVG 20010904//EN"
 "http://www.w3.org/TR/2001/REC-SVG-20010904/DTD/svg10.dtd">
<svg version="1.0" xmlns="http://www.w3.org/2000/svg"
 width="1000.000000pt" height="1000.000000pt" viewBox="0 0 1000.000000 1000.000000"
 preserveAspectRatio="xMidYMid meet">

<g transform="translate(0.000000,1000.000000) scale(0.100000,-0.100000)"
fill="#000000" stroke="none">
<path d="M380 5003 l0 -4623 4625 0 4625 0 0 4620 c0 3689 -3 4620 -12 4621
-7 1 -2089 2 -4625 3 l-4613 1 0 -4622z m9195 -2 l0 -4575 -4560 -1 c-2508 0
-4566 1 -4572 3 -10 3 -13 928 -13 4578 l0 4574 4573 -2 4572 -3 0 -4574z"/>
<path d="M770 6812 l0 -2417 1808 -1808 1807 -1807 2418 0 2417 0 0 2418 0
2417 -1808 1808 -1807 1807 -2418 0 -2417 0 0 -2418z m6612 581 l1788 -1788 0
-2387 0 -2388 -2382 0 -2383 0 -1792 1792 -1793 1793 0 2382 0 2383 2387 0
2388 0 1787 -1787z"/>
<path d="M4605 8736 c-5 -2 -34 -12 -64 -21 -179 -55 -311 -240 -311 -436 0
-195 130 -367 322 -429 21 -6 47 -23 58 -37 19 -24 20 -40 20 -314 0 -159 -1
-289 -3 -289 -2 0 -54 -9 -116 -20 -666 -120 -1223 -542 -1518 -1148 -93 -192
-163 -421 -189 -619 l-7 -53 -283 0 c-296 0 -323 3 -342 44 -6 11 -27 56 -47
99 -85 182 -257 278 -458 255 -156 -19 -289 -112 -357 -253 -74 -150 -62 -317
35 -462 l36 -54 -24 -29 c-51 -60 -97 -192 -97 -277 0 -122 53 -244 144 -331
226 -217 579 -154 721 130 19 39 35 76 35 83 0 6 12 22 26 36 l26 24 313 1
313 2 27 -87 c83 -272 198 -495 370 -716 141 -180 419 -422 591 -513 11 -6 26
-30 33 -54 69 -229 283 -411 527 -448 72 -11 193 -7 230 7 12 4 14 -43 14
-305 0 -298 -1 -310 -21 -336 -11 -14 -26 -26 -33 -26 -6 0 -44 -16 -84 -35
-122 -58 -215 -168 -247 -291 -42 -162 5 -325 127 -441 161 -151 395 -171 575
-47 l52 36 45 -31 c95 -65 129 -75 266 -76 120 0 127 1 193 32 183 87 290 281
259 468 -28 171 -138 310 -294 370 -87 34 -98 50 -98 142 0 88 -16 126 -61
142 -42 14 -95 -8 -110 -46 -6 -16 -9 -65 -7 -113 7 -138 58 -219 168 -267 86
-38 112 -53 148 -87 87 -81 111 -211 59 -319 -46 -93 -128 -147 -237 -154 -94
-7 -162 21 -229 92 -53 58 -91 79 -121 70 -10 -3 -42 -30 -70 -59 -108 -111
-229 -137 -351 -73 -48 24 -73 45 -101 86 -114 164 -40 359 166 436 59 22 129
83 159 140 21 39 22 53 25 402 l3 362 92 93 c73 73 101 110 132 173 22 44 41
82 42 84 2 3 28 -20 58 -49 l55 -54 0 -214 c0 -263 6 -282 94 -282 22 0 40 8
57 26 22 24 24 34 27 156 l4 130 26 -25 c66 -61 186 -113 279 -120 63 -6 163
12 218 38 91 43 324 204 475 329 121 99 370 352 475 481 115 141 288 400 315
473 56 150 20 343 -85 454 -14 15 -25 32 -25 38 0 8 109 10 369 8 367 -3 370
-3 393 -25 13 -13 32 -45 42 -73 25 -69 85 -160 132 -198 54 -45 147 -89 221
-104 129 -25 274 18 378 114 66 60 93 100 123 179 54 146 27 330 -64 439 l-25
29 36 54 c99 149 110 320 31 474 -122 239 -425 317 -650 168 -78 -52 -122
-105 -172 -212 -24 -51 -53 -97 -63 -103 -12 -6 -131 -10 -320 -10 l-299 0 5
114 c7 146 -6 216 -62 331 -71 144 -183 247 -337 308 -36 15 -71 27 -77 27 -6
0 -40 46 -77 102 -79 121 -175 247 -237 306 -35 34 -52 44 -81 45 -50 1 -86
-34 -86 -83 0 -32 10 -48 66 -111 90 -100 153 -186 221 -301 61 -102 69 -110
146 -127 116 -27 234 -117 286 -219 86 -169 60 -410 -61 -547 -71 -81 -153
-120 -287 -136 -91 -10 -115 -19 -131 -49 -23 -43 1 -73 255 -330 229 -232
254 -260 270 -309 26 -78 15 -145 -41 -258 -25 -50 -52 -97 -60 -104 -13 -10
-42 14 -183 154 -145 145 -172 167 -199 167 -47 0 -86 -38 -86 -84 0 -34 12
-49 179 -216 l179 -179 -24 -33 c-33 -46 -183 -220 -204 -237 -15 -13 -34 3
-190 157 -152 152 -176 172 -205 172 -23 0 -41 -9 -62 -29 -58 -58 -40 -88
170 -295 77 -77 141 -144 140 -150 0 -11 -65 -68 -202 -179 l-72 -57 -175 175
c-189 188 -214 204 -265 171 -31 -21 -48 -61 -40 -96 4 -14 77 -96 167 -187
133 -133 159 -165 149 -176 -21 -26 -174 -97 -230 -107 -60 -11 -110 -5 -156
18 -16 8 -143 126 -281 263 -230 228 -254 249 -285 249 -62 -1 -81 -26 -95
-131 -24 -172 -100 -283 -238 -348 -194 -92 -426 -56 -556 86 -57 62 -87 121
-109 211 -15 63 -19 68 -71 104 -30 20 -58 37 -62 37 -14 2 -156 103 -242 173
-176 144 -361 381 -470 604 -234 477 -269 1008 -100 1513 34 100 141 318 201
408 170 254 381 452 640 600 266 153 547 236 848 251 421 22 798 -77 1145
-299 41 -26 86 -50 100 -53 33 -8 88 26 96 60 12 49 -7 76 -96 136 -157 106
-352 197 -542 253 l-98 29 0 312 0 312 26 31 c14 17 32 31 40 31 25 0 135 59
180 95 94 77 154 210 154 341 0 254 -205 454 -465 454 -94 0 -217 -45 -282
-103 -21 -19 -22 -19 -60 12 -66 53 -156 83 -258 87 -49 2 -94 2 -100 0z m153
-180 c66 -18 94 -36 158 -103 71 -74 97 -73 174 5 70 72 135 104 210 106 117
2 214 -55 267 -158 21 -41 27 -65 27 -121 0 -126 -69 -215 -214 -274 -84 -35
-116 -62 -156 -134 l-29 -52 -3 -314 -3 -313 -32 6 c-18 3 -103 9 -189 12
l-158 7 0 279 c0 165 -4 296 -11 321 -22 89 -91 156 -199 196 -119 44 -193
144 -193 261 0 134 83 241 211 276 61 17 77 16 140 0z m-2912 -2989 c66 -34
107 -83 141 -171 32 -86 86 -146 156 -177 50 -22 63 -22 339 -24 158 0 289 -3
291 -5 2 -3 9 -82 15 -176 6 -94 12 -178 14 -185 2 -12 -51 -15 -312 -19 -288
-5 -318 -7 -355 -25 -65 -32 -117 -92 -148 -171 -35 -90 -82 -145 -153 -180
-182 -89 -394 48 -394 256 0 86 40 171 106 225 80 66 79 111 -1 179 -25 20
-57 58 -72 84 -25 42 -28 56 -28 137 0 76 4 96 24 130 36 63 71 95 136 127 51
24 69 28 125 25 45 -3 81 -12 116 -30z m6559 3 c102 -57 155 -144 155 -254 0
-90 -29 -154 -95 -215 -89 -82 -90 -112 -2 -196 65 -62 90 -112 95 -193 12
-178 -108 -305 -285 -303 -117 1 -206 73 -262 211 -33 80 -74 130 -136 163
-39 22 -50 22 -526 25 l-485 3 -59 59 -59 59 28 11 c97 36 146 70 236 160 l95
95 350 1 c323 1 354 3 398 21 73 29 131 92 163 177 32 84 107 164 176 190 60
22 161 16 213 -14z"/>
<path d="M5495 6266 c-183 -49 -328 -161 -411 -319 -181 -345 -20 -759 346
-892 98 -35 252 -45 352 -21 230 54 413 234 472 462 20 78 20 220 0 304 -49
210 -202 374 -424 452 -71 26 -262 33 -335 14z m237 -167 c169 -36 308 -172
353 -344 56 -218 -70 -453 -288 -533 -170 -64 -358 -21 -482 109 -102 107
-148 250 -125 388 44 259 291 433 542 380z"/>
<path d="M4317 4994 c-1 -1 -24 -4 -52 -8 -357 -42 -608 -403 -529 -759 76
-340 408 -553 749 -482 182 38 354 171 433 336 58 119 79 240 63 356 -29 208
-109 297 -192 214 -35 -35 -36 -53 -8 -123 42 -105 36 -255 -15 -363 -27 -59
-101 -144 -161 -185 -201 -139 -505 -73 -638 137 -51 80 -69 157 -65 268 3 89
8 108 38 170 61 128 186 227 319 256 67 14 180 7 244 -15 73 -26 106 -24 134
8 34 39 31 87 -7 119 -29 25 -112 55 -175 63 -36 5 -135 11 -138 8z"/>
<path d="M5320 4680 c-11 -11 -20 -33 -20 -50 0 -54 131 -684 148 -715 14 -24
26 -31 56 -33 39 -3 41 -1 322 279 156 155 288 295 295 311 9 23 8 32 -5 53
-9 13 -24 29 -35 34 -15 8 -230 56 -341 76 -14 2 -92 18 -174 35 -177 36 -219
37 -246 10z m363 -211 c86 -18 157 -35 157 -38 0 -3 -61 -67 -135 -141 -90
-89 -136 -129 -139 -119 -3 8 -17 75 -31 149 -15 74 -29 145 -32 158 -7 28
-10 28 180 -9z"/>
<path d="M7595 7590 l1640 -1640 2 127 c2 71 -1 808 -5 1638 l-7 1510 -1635 3
-1635 3 1640 -1641z m634 1140 c0 -3 -21 -23 -45 -44 l-45 -39 -47 46 c-26 26
-52 47 -56 47 -14 0 -57 -53 -77 -95 -24 -52 -24 -91 1 -140 l20 -39 -47 -48
-47 -48 -27 44 c-33 52 -59 126 -59 166 0 32 -2 33 -88 45 -44 5 -111 33 -147
61 -19 14 -18 16 26 60 l46 46 38 -16 c74 -31 160 -11 219 53 l30 31 -49 50
-49 50 44 45 44 45 158 -157 c87 -87 158 -160 157 -163z m131 -106 l53 -56
-209 -209 -209 -209 -57 57 -58 58 97 97 97 98 -47 48 -47 48 45 44 45 44 48
-47 48 -47 64 65 c35 36 67 65 71 65 3 0 30 -25 59 -56z m-682 -91 c3 -1 -24
-30 -58 -64 l-62 -62 171 -171 c94 -94 171 -176 171 -182 0 -5 -19 -29 -43
-52 l-42 -42 -228 228 c-125 125 -227 232 -227 237 0 5 46 56 102 112 l103
103 55 -53 c30 -28 56 -53 58 -54z m1132 -378 l234 -235 -44 -45 -44 -45 -176
175 c-96 96 -180 175 -186 175 -5 0 -15 -5 -22 -12 -10 -10 25 -50 165 -190
l177 -178 -44 -45 -44 -45 -178 177 c-169 169 -179 177 -195 160 -17 -16 -8
-26 164 -200 l182 -182 -42 -47 -42 -47 -242 242 -243 242 167 167 c92 93 170
168 173 168 3 0 111 -106 240 -235z m-380 -380 l265 -265 -48 -47 -47 -48
-105 105 -105 105 -58 -58 c-32 -31 -62 -57 -67 -57 -13 0 -105 92 -105 104 0
6 26 36 57 68 l58 58 -105 105 -104 105 44 45 c24 25 47 45 50 45 3 0 124
-119 270 -265z"/>
<path d="M780 2417 l0 -1637 863 -1 c474 0 1212 -1 1640 -2 427 -2 776 0 775
3 -1 3 -739 741 -1640 1640 l-1638 1635 0 -1638z m854 204 c44 -44 47 -50 34
-70 -12 -20 -5 -29 107 -141 113 -113 120 -119 137 -103 18 16 22 14 74 -38
l55 -56 -107 -107 -107 -107 -234 233 -233 233 102 102 c57 57 107 103 113
103 6 0 32 -22 59 -49z m-57 -403 c145 -145 263 -267 263 -272 0 -10 -68 -76
-78 -76 -4 0 -52 46 -108 101 -65 65 -106 99 -114 94 -8 -5 17 -36 76 -96 l88
-88 -20 -22 c-10 -13 -48 -51 -83 -86 l-65 -64 -177 177 c-98 98 -182 175
-186 171 -4 -4 76 -91 177 -192 l185 -185 -40 -40 -40 -40 -240 240 -240 240
85 85 85 85 175 -175 c96 -96 179 -175 183 -175 25 0 -12 44 -165 197 l-173
173 38 37 37 38 88 -88 c48 -48 91 -87 95 -87 23 0 -4 37 -93 125 -55 55 -100
105 -100 111 0 12 65 74 78 74 4 0 125 -118 269 -262z m698 -348 l-55 -55 180
-180 180 -180 -45 -45 -45 -45 -235 235 -235 235 101 101 100 101 54 -56 54
-56 -54 -55z m165 -615 l-45 -45 -267 267 c-148 147 -268 269 -268 272 0 3 19
25 42 48 l43 43 270 -270 270 -270 -45 -45z m-567 341 c54 -10 122 -59 222
-160 115 -116 155 -183 155 -260 0 -58 -21 -97 -67 -121 -47 -26 -104 -22
-172 12 -79 38 -258 218 -295 295 -50 102 -32 188 46 227 36 18 52 19 111 7z"/>
<path d="M1554 2439 c-4 -7 44 -62 114 -132 97 -97 124 -119 134 -109 10 10
-12 37 -107 132 -66 66 -123 120 -127 120 -4 0 -10 -5 -14 -11z"/>
<path d="M1834 1445 c-13 -33 10 -70 99 -159 64 -65 102 -96 124 -100 83 -19
67 49 -36 157 -94 100 -172 142 -187 102z"/>
</g>
</svg>
