<?xml version="1.0" standalone="no"?>
<!DOCTYPE svg PUBLIC "-//W3C//DTD SVG 20010904//EN"
 "http://www.w3.org/TR/2001/REC-SVG-20010904/DTD/svg10.dtd">
<svg version="1.0" xmlns="http://www.w3.org/2000/svg"
 width="1000.000000pt" height="1000.000000pt" viewBox="0 0 1000.000000 1000.000000"
 preserveAspectRatio="xMidYMid meet">

<g transform="translate(0.000000,1000.000000) scale(0.100000,-0.100000)"
fill="#000000" stroke="none">
<path d="M380 5003 l0 -4623 4625 0 4625 0 0 4620 c0 3689 -3 4620 -12 4621
-7 1 -2089 2 -4625 3 l-4613 1 0 -4622z m9195 -2 l0 -4575 -4560 -1 c-2508 0
-4566 1 -4572 3 -10 3 -13 928 -13 4578 l0 4574 4573 -2 4572 -3 0 -4574z"/>
<path d="M770 6812 l0 -2417 1808 -1808 1807 -1807 2418 0 2417 0 0 2418 0
2417 -1808 1808 -1807 1807 -2418 0 -2417 0 0 -2418z m6612 581 l1788 -1788 0
-2387 0 -2388 -2382 0 -2383 0 -1792 1792 -1793 1793 0 2382 0 2383 2387 0
2388 0 1787 -1787z"/>
<path d="M5385 7913 c-269 -14 -603 -72 -876 -153 -131 -39 -376 -130 -469
-176 -39 -18 -73 -34 -76 -34 -12 0 -277 -148 -354 -198 -831 -538 -1325
-1371 -1476 -2492 -26 -191 -27 -705 -1 -865 34 -215 86 -387 151 -498 70
-119 230 -210 451 -257 l60 -13 510 -507 c566 -563 553 -552 685 -558 132 -6
242 54 305 169 27 49 30 62 30 149 0 118 -20 165 -111 260 -88 91 -104 143
-64 208 40 65 134 93 190 56 14 -9 156 -146 315 -305 251 -250 298 -292 349
-314 222 -98 473 79 454 319 -10 118 -22 134 -345 458 -164 164 -295 299 -293
301 3 1 46 20 95 41 84 36 283 136 343 173 234 144 412 281 578 443 l90 89
260 -260 c142 -143 278 -271 301 -285 58 -35 98 -45 174 -46 199 -1 353 185
317 382 -16 86 -43 126 -178 265 -70 72 -132 140 -139 152 -27 53 4 150 59
178 34 18 102 20 133 4 12 -6 159 -147 327 -314 292 -289 307 -302 363 -319
167 -51 334 20 405 173 21 45 27 71 27 131 0 142 16 121 -485 625 -246 248
-451 461 -455 473 -17 58 17 117 70 122 46 5 61 -4 139 -79 108 -105 165 -134
271 -135 72 -1 88 3 147 32 118 58 182 160 182 292 0 142 8 132 -523 665
l-469 470 -6 115 c-19 339 -106 633 -231 778 -172 199 -663 313 -1230 285z
m460 -194 c39 -4 92 -11 120 -14 194 -22 418 -107 496 -187 48 -50 110 -174
139 -278 121 -441 76 -1123 -111 -1695 -86 -260 -229 -566 -362 -774 -37 -58
-67 -114 -67 -125 0 -37 36 -84 70 -91 65 -14 101 21 212 210 254 432 438
1002 488 1515 6 63 14 130 16 149 l6 34 394 -394 c428 -428 429 -429 405 -508
-16 -54 -73 -101 -123 -101 -58 0 -82 14 -170 98 -110 105 -133 116 -233 117
-65 0 -89 -4 -125 -23 -61 -32 -97 -68 -128 -127 -34 -63 -37 -176 -7 -240 12
-27 166 -189 460 -485 244 -245 448 -455 454 -467 15 -30 14 -89 -4 -123 -32
-62 -107 -93 -168 -70 -19 8 -150 130 -327 306 -194 193 -311 301 -342 317
-59 31 -149 42 -220 28 -154 -32 -272 -196 -254 -351 12 -98 43 -147 189 -298
108 -110 137 -146 142 -175 21 -113 -96 -202 -198 -151 -18 9 -184 167 -369
352 l-337 335 -38 -6 c-67 -11 -103 -81 -72 -139 13 -24 6 -33 -137 -162 -154
-140 -331 -270 -499 -367 -147 -85 -433 -219 -469 -219 -5 0 -47 37 -93 81
-80 79 -85 81 -121 76 -49 -8 -82 -46 -82 -95 0 -35 20 -57 434 -472 239 -239
439 -445 445 -457 48 -94 -45 -215 -152 -198 -39 7 -65 30 -347 310 -351 348
-355 350 -490 349 -77 0 -91 -3 -148 -34 -116 -62 -176 -160 -176 -291 0 -98
31 -164 121 -259 66 -71 87 -114 76 -159 -13 -55 -35 -83 -80 -103 -89 -39
-72 -52 -530 405 -227 226 -413 414 -413 417 0 3 100 5 223 5 207 0 357 7 452
20 212 31 201 29 310 49 184 33 258 56 288 87 37 40 36 81 -2 120 -34 33 -60
36 -141 15 -168 -43 -382 -77 -645 -102 -109 -10 -448 -7 -570 5 -291 30 -504
100 -571 188 -55 72 -99 212 -131 416 -23 143 -26 682 -5 847 48 374 120 661
244 974 211 534 565 991 996 1290 28 20 75 52 103 72 141 98 429 242 659 329
287 109 698 202 975 221 50 4 92 8 94 10 7 6 380 1 446 -7z"/>
<path d="M4335 7120 c-639 -57 -1189 -494 -1381 -1097 -57 -180 -69 -264 -69
-488 0 -235 11 -310 71 -493 196 -602 719 -1024 1353 -1093 99 -11 307 -7 391
7 604 100 1091 507 1279 1069 62 186 76 279 75 510 0 180 -3 225 -22 314 -121
558 -500 994 -1028 1184 -199 71 -460 105 -669 87z m415 -210 c382 -81 687
-290 900 -615 349 -534 286 -1252 -152 -1720 -271 -290 -629 -445 -1027 -445
-230 -1 -434 47 -635 147 -182 91 -363 243 -487 408 -210 280 -312 635 -279
971 29 291 128 535 311 762 224 280 549 462 914 511 106 15 344 5 455 -19z"/>
<path d="M4340 6176 c-275 -58 -482 -284 -520 -567 -30 -229 82 -481 271 -609
159 -108 335 -144 521 -105 118 25 261 103 322 175 50 61 22 144 -54 156 -31
5 -43 -1 -100 -45 -163 -127 -346 -151 -517 -66 -94 46 -162 114 -208 208 -90
183 -63 380 74 530 78 84 189 137 303 144 137 9 250 -28 344 -110 30 -26 57
-41 84 -44 34 -5 43 -1 70 25 53 54 38 107 -51 177 -65 51 -161 99 -241 121
-78 21 -222 26 -298 10z"/>
<path d="M7595 7590 l1640 -1640 2 127 c2 71 -1 808 -5 1638 l-7 1510 -1635 3
-1635 3 1640 -1641z m567 1213 c126 -125 228 -233 228 -239 0 -13 -170 -178
-198 -193 -15 -8 -28 0 -71 43 l-52 53 63 61 63 62 -178 177 -177 177 42 43
c23 24 45 43 48 43 2 0 107 -102 232 -227z m-287 -83 l55 54 55 -54 55 -55
-55 -55 -55 -55 132 -132 133 -133 -47 -47 c-26 -26 -49 -45 -50 -42 -2 3
-122 125 -268 272 l-265 267 45 45 44 45 83 -82 83 -82 55 54z m-242 -145 c79
-38 171 -117 242 -207 92 -117 116 -199 75 -265 -42 -70 -122 -86 -211 -44
-96 46 -259 206 -310 304 -31 60 -36 129 -12 167 46 73 124 89 216 45z m1406
-653 c3 -1 -16 -24 -42 -50 l-47 -46 -35 34 -35 34 -62 -60 c-35 -33 -74 -68
-88 -77 l-24 -17 44 -45 44 -45 -47 -47 -47 -48 -95 95 -95 94 -60 -59 -60
-60 105 -105 105 -106 -45 -44 -45 -45 -267 268 -268 267 45 45 44 45 106
-105 105 -105 60 60 59 60 -94 95 -95 95 47 47 48 47 40 -39 40 -39 82 82 82
82 -34 35 -34 35 44 45 45 45 234 -232 c130 -128 237 -234 240 -236z"/>
<path d="M7546 8444 c-21 -54 176 -264 247 -264 63 0 32 73 -75 176 -105 101
-157 128 -172 88z"/>
<path d="M8575 8030 l-80 -80 46 -46 c37 -37 51 -45 68 -39 27 8 151 123 151
139 0 11 -90 106 -101 106 -2 0 -40 -36 -84 -80z"/>
<path d="M780 2417 l0 -1637 863 -1 c474 0 1212 -1 1640 -2 427 -2 776 0 775
3 -1 3 -739 741 -1640 1640 l-1638 1635 0 -1638z m1256 -43 c-8 -30 28 -62 49
-44 13 11 20 9 45 -15 17 -16 30 -34 30 -40 0 -6 -45 -55 -100 -110 l-100 -99
-35 34 -35 34 20 21 20 21 -23 22 c-18 17 -26 19 -35 10 -10 -10 -32 7 -105
80 l-92 92 95 95 95 95 88 -88 c69 -68 87 -92 83 -108z m-686 -259 c-13 -14
-31 -25 -39 -25 -19 0 -221 -199 -221 -218 0 -29 33 -4 162 125 l137 137 26
-24 c14 -13 25 -28 25 -34 0 -6 -28 -39 -62 -73 -34 -34 -59 -66 -55 -70 4 -4
38 23 75 60 l68 67 29 -30 29 -31 -182 -181 -181 -182 -31 29 -30 29 87 88
c48 48 84 91 80 95 -4 4 -46 -31 -92 -77 l-85 -84 -30 29 c-21 20 -27 32 -20
40 7 9 -15 37 -77 98 l-88 86 25 25 c13 15 30 24 40 21 18 -6 239 210 227 221
-4 4 5 20 20 36 l27 29 80 -80 80 -80 -24 -26z m418 132 c71 -51 133 -136 140
-192 4 -41 1 -50 -24 -76 -20 -21 -37 -29 -63 -29 -71 0 -193 96 -235 184 -34
71 -13 138 47 154 42 11 78 1 135 -41z m762 -353 c0 -6 -9 -19 -20 -29 -20
-18 -22 -18 -75 35 -46 45 -55 51 -55 33 0 -11 16 -44 35 -73 19 -29 35 -53
35 -54 0 -8 -39 -46 -46 -46 -15 0 -64 68 -89 123 -21 45 -32 55 -82 80 -32
15 -74 41 -93 57 l-34 30 26 26 26 27 39 -32 c38 -30 103 -57 103 -42 0 4 -23
29 -50 56 l-50 49 27 24 27 23 138 -138 c76 -76 138 -143 138 -149z m-282 -7
l163 -163 -29 -27 -28 -27 -64 65 c-35 36 -68 61 -73 56 -4 -4 5 -30 22 -57
39 -60 41 -105 6 -139 -29 -30 -63 -32 -113 -6 -89 45 -202 178 -204 239 -3
84 81 112 163 56 35 -24 59 -31 59 -17 0 4 -28 36 -62 70 l-62 63 24 25 c13
14 26 25 29 25 4 0 79 -73 169 -163z m-613 3 l29 -30 -52 -53 c-29 -29 -52
-57 -52 -63 0 -6 30 -39 66 -74 l65 -63 -24 -25 c-32 -31 -38 -27 -152 87
l-90 91 80 80 c44 44 84 80 90 80 6 0 24 -14 40 -30z m112 -182 c40 -39 43
-41 61 -25 17 16 20 15 52 -18 l34 -35 -84 -85 c-47 -47 -89 -85 -95 -85 -6 0
-24 14 -40 30 l-29 30 44 45 44 45 -44 45 -44 45 24 25 c13 14 26 25 29 25 3
0 24 -19 48 -42z m-100 -325 l-57 -58 -105 105 c-57 57 -108 101 -112 97 -4
-4 41 -56 100 -115 l108 -108 -24 -22 -23 -22 -142 143 -142 142 55 55 55 54
105 -104 c57 -57 108 -101 112 -97 4 4 -40 55 -97 112 l-104 104 24 26 24 26
141 -141 140 -140 -58 -57z m416 69 c48 -48 87 -92 87 -98 0 -6 -11 -21 -25
-34 l-25 -24 -60 59 -60 59 -35 -34 c-19 -19 -35 -39 -35 -44 0 -6 23 -34 52
-63 l52 -53 -27 -27 -27 -27 -58 57 -58 57 -37 -38 c-20 -21 -37 -42 -37 -48
0 -13 109 -119 139 -134 22 -11 31 -5 160 124 l137 136 34 -35 34 -36 -182
-181 -181 -182 -36 34 c-31 30 -33 35 -20 50 18 20 19 30 2 30 -7 0 -59 47
-117 105 l-105 105 165 165 c91 91 167 165 170 165 3 0 45 -39 93 -88z"/>
<path d="M1835 2410 l-39 -40 27 -27 27 -28 40 41 40 40 -28 27 -28 27 -39
-40z"/>
<path d="M1953 2285 c-3 -9 3 -25 13 -36 16 -17 19 -18 33 -5 13 14 13 18 -4
36 -22 24 -34 25 -42 5z"/>
<path d="M1122 2058 c-106 -105 -128 -133 -85 -109 31 17 206 198 202 210 -2
6 -55 -40 -117 -101z"/>
<path d="M1673 2203 c-7 -3 -13 -15 -13 -28 0 -46 132 -157 157 -132 13 14
-10 59 -53 101 -51 51 -73 65 -91 59z"/>
<path d="M2017 1824 c-18 -18 113 -164 147 -164 44 0 -25 104 -98 149 -37 23
-40 24 -49 15z"/>
</g>
</svg>
