<?xml version="1.0" standalone="no"?>
<!DOCTYPE svg PUBLIC "-//W3C//DTD SVG 20010904//EN"
 "http://www.w3.org/TR/2001/REC-SVG-20010904/DTD/svg10.dtd">
<svg version="1.0" xmlns="http://www.w3.org/2000/svg"
 width="1000.000000pt" height="1000.000000pt" viewBox="0 0 1000.000000 1000.000000"
 preserveAspectRatio="xMidYMid meet">

<g transform="translate(0.000000,1000.000000) scale(0.100000,-0.100000)"
fill="#000000" stroke="none">
<path d="M380 5003 l0 -4623 4625 0 4625 0 0 4620 c0 3689 -3 4620 -12 4621
-7 1 -2089 2 -4625 3 l-4613 1 0 -4622z m9195 -2 l0 -4575 -4560 -1 c-2508 0
-4566 1 -4572 3 -10 3 -13 928 -13 4578 l0 4574 4573 -2 4572 -3 0 -4574z"/>
<path d="M770 6812 l0 -2417 1808 -1808 1807 -1807 2418 0 2417 0 0 2418 0
2417 -1808 1808 -1807 1807 -2418 0 -2417 0 0 -2418z m6612 581 l1788 -1788 0
-2387 0 -2388 -2382 0 -2383 0 -1792 1792 -1793 1793 0 2382 0 2383 2387 0
2388 0 1787 -1787z"/>
<path d="M4990 9023 c-8 -3 -273 -262 -587 -577 -400 -398 -573 -577 -573
-592 0 -12 59 -257 131 -545 l130 -524 331 -665 331 -665 246 -247 c168 -170
253 -248 267 -248 49 0 49 -6 15 578 -17 301 -31 550 -31 554 0 4 39 19 86 35
54 17 92 36 99 48 7 11 131 434 274 940 144 506 264 926 267 934 3 9 -170 189
-468 489 -260 260 -480 477 -488 481 -8 5 -22 6 -30 4z m880 -993 c0 -8 -20
-85 -44 -170 -152 -533 -430 -1506 -447 -1562 l-19 -66 -95 -32 c-53 -18 -99
-39 -104 -48 -6 -11 2 -204 20 -497 16 -264 29 -491 29 -505 0 -21 -32 7 -185
160 l-186 185 -314 629 c-173 345 -315 633 -315 640 0 6 57 36 128 67 l127 55
158 312 158 313 114 632 c64 348 120 656 126 686 l11 54 419 -419 c230 -230
419 -426 419 -434z m-1022 373 c-43 -236 -94 -518 -114 -628 -19 -110 -36
-201 -37 -202 -6 -6 -156 -13 -397 -19 -151 -3 -278 -8 -281 -10 -15 -8 -28
27 -60 159 l-33 138 494 494 c272 272 498 495 501 495 3 0 -30 -192 -73 -427z
m-198 -940 c0 -4 -56 -118 -124 -253 -137 -271 -114 -245 -270 -315 -43 -20
-81 -33 -83 -31 -3 3 -38 135 -78 295 -48 193 -69 291 -61 294 6 2 81 5 166 6
85 1 156 4 158 5 7 7 292 6 292 -1z"/>
<path d="M6456 7438 c-17 -26 -249 -639 -336 -888 -32 -91 -85 -241 -118 -335
-33 -93 -71 -201 -85 -240 -149 -423 -180 -511 -186 -517 -4 -4 -65 -30 -136
-57 -107 -40 -131 -53 -138 -72 -11 -38 -53 -677 -45 -699 11 -30 41 -25 169
26 103 40 120 50 146 87 17 23 70 94 119 157 48 63 151 198 228 300 204 270
214 282 261 320 23 19 84 70 134 113 236 200 323 273 764 642 119 99 219 188
222 198 4 9 4 25 1 35 -3 9 -216 227 -474 485 -333 333 -474 467 -490 467 -12
0 -28 -10 -36 -22z m476 -525 c225 -225 408 -412 408 -418 -1 -5 -87 -82 -192
-170 -105 -88 -279 -234 -387 -325 -514 -430 -545 -458 -608 -542 -34 -46
-164 -218 -290 -383 -228 -297 -230 -300 -287 -322 -31 -13 -60 -22 -64 -19
-6 3 13 322 30 516 l3 35 125 46 c143 53 135 44 194 214 19 55 55 156 79 225
25 69 112 316 195 550 83 234 187 522 232 640 45 118 94 248 108 288 15 39 31
72 37 72 5 0 193 -183 417 -407z"/>
<path d="M2582 6498 c-312 -313 -342 -346 -340 -373 l3 -30 500 -167 500 -168
101 -101 101 -101 352 -70 c375 -75 381 -75 381 -22 0 15 -120 191 -330 486
l-330 461 0 67 c0 101 -13 106 -147 63 l-83 -27 -163 162 c-99 99 -170 162
-182 162 -12 0 -146 -126 -363 -342z m523 72 c166 -166 165 -166 255 -130 28
11 55 20 60 20 6 0 10 -18 10 -41 0 -37 25 -75 296 -455 163 -228 294 -417
291 -420 -2 -3 -119 18 -260 46 l-255 51 -93 94 c-108 111 -47 84 -611 271
-230 77 -418 143 -418 149 0 13 552 565 565 565 6 0 78 -67 160 -150z"/>
<path d="M5704 6696 c-9 -7 -41 -114 -83 -279 l-68 -268 -101 -102 -102 -102
0 -208 c0 -125 4 -216 10 -228 15 -27 49 -23 169 19 l105 37 203 540 c111 297
203 547 203 556 0 36 -28 44 -176 45 -93 1 -150 -3 -160 -10z m213 -92 c3 -8
-68 -202 -338 -920 -18 -47 -22 -51 -71 -67 -28 -9 -54 -15 -57 -12 -4 2 -6
72 -5 155 l1 151 96 97 96 97 63 252 c70 281 56 259 157 257 30 0 56 -5 58
-10z"/>
<path d="M1582 5497 c-298 -298 -542 -549 -542 -557 0 -8 191 -206 425 -440
l424 -424 543 58 c299 31 559 59 578 61 19 2 60 7 90 10 76 7 507 52 665 70
72 7 164 17 205 20 41 4 82 8 90 10 8 1 51 6 96 10 86 7 69 11 389 -80 66 -18
138 -23 469 -31 295 -7 295 -7 296 38 0 33 -185 403 -212 423 -14 11 -119 103
-233 205 -115 102 -254 226 -310 275 -56 50 -139 123 -184 163 l-81 72 -462 0
-463 0 -165 164 -165 164 -95 35 c-52 19 -247 94 -433 166 -186 72 -348 131
-360 131 -16 0 -178 -156 -565 -543z m870 334 c156 -60 339 -130 408 -156
l125 -48 170 -169 170 -168 464 0 463 0 92 -82 c51 -46 204 -182 341 -303 137
-121 275 -242 305 -270 48 -42 67 -72 128 -193 40 -78 72 -145 72 -148 0 -5
-144 -1 -442 12 -123 5 -191 19 -433 90 -70 21 -100 19 -470 -20 -181 -20
-357 -39 -390 -42 -33 -3 -71 -7 -85 -9 -14 -2 -52 -6 -85 -9 -84 -8 -488 -51
-815 -86 -151 -16 -306 -32 -345 -36 -38 -3 -100 -9 -137 -13 l-67 -7 -380
380 c-210 209 -381 383 -381 386 0 8 994 1000 1002 1000 4 0 134 -49 290 -109z"/>
<path d="M7895 5966 c-11 -8 -122 -144 -245 -304 -187 -242 -232 -293 -265
-308 -22 -9 -71 -32 -110 -50 -38 -17 -126 -57 -195 -87 -69 -30 -151 -67
-182 -81 -116 -52 -176 -79 -313 -141 -77 -34 -160 -72 -185 -83 -25 -11 -106
-47 -180 -80 -120 -53 -178 -79 -285 -128 -16 -7 -120 -54 -230 -103 -111 -50
-206 -99 -213 -110 -20 -29 0 -61 39 -61 16 0 98 13 182 29 83 16 251 48 372
71 217 40 377 70 690 130 88 16 221 41 295 54 138 25 397 74 529 100 l74 14
344 344 c226 226 343 350 343 363 0 13 -75 95 -213 233 -117 117 -217 212
-223 212 -5 0 -19 -6 -29 -14z m204 -280 c79 -79 142 -149 140 -155 -4 -12
-491 -502 -495 -498 -2 2 149 616 187 760 5 20 13 37 17 37 4 0 72 -65 151
-144z m-384 -377 c-53 -211 -100 -388 -105 -392 -4 -5 -91 -24 -191 -43 -314
-59 -549 -104 -684 -129 -287 -55 -722 -136 -752 -141 -20 -3 -33 -1 -33 5 0
6 5 11 11 11 11 0 180 73 321 139 70 33 872 392 1163 520 33 15 70 57 200 225
88 114 161 204 162 199 2 -5 -40 -182 -92 -394z"/>
<path d="M7651 4565 c-256 -85 -468 -155 -473 -155 -4 0 -8 17 -8 38 0 56 -25
76 -87 68 -26 -3 -70 -8 -98 -11 -27 -2 -140 -14 -250 -25 -110 -11 -222 -22
-250 -25 -89 -9 -449 -45 -490 -50 -22 -2 -76 -7 -120 -10 -44 -4 -90 -13
-102 -21 -27 -17 -30 -45 -5 -66 9 -9 134 -75 278 -146 276 -137 259 -132 439
-147 33 -3 141 -12 240 -20 99 -8 207 -17 240 -20 80 -6 507 -42 722 -60 94
-8 190 -15 212 -15 40 0 46 6 351 310 183 183 310 318 310 329 0 10 -6 24 -14
30 -10 8 -425 153 -431 151 0 0 -209 -70 -464 -155z m614 9 c77 -26 144 -50
148 -54 8 -7 -509 -530 -524 -530 -4 0 -108 9 -231 20 -123 10 -257 22 -298
25 -41 3 -127 10 -190 15 -63 6 -144 13 -180 15 -36 3 -87 8 -115 10 -27 3
-135 12 -240 20 -104 8 -214 17 -243 20 -69 7 -429 183 -397 195 11 4 79 12
150 19 72 7 238 23 370 37 132 13 265 26 295 29 30 3 99 10 154 16 54 6 101 7
104 4 7 -7 8 -13 10 -67 3 -71 -4 -72 528 106 269 90 496 164 504 165 8 1 78
-20 155 -45z"/>
<path d="M5432 4308 c-7 -7 -12 -21 -12 -33 0 -11 242 -382 538 -825 436 -654
542 -806 561 -808 20 -3 81 54 368 340 233 233 343 350 343 364 0 28 -7 34
-230 171 -107 66 -339 210 -515 319 -176 108 -399 246 -495 306 -96 59 -183
108 -194 108 -11 0 -32 -12 -47 -26 l-27 -26 -124 61 c-131 64 -146 69 -166
49z m813 -433 c160 -98 292 -180 294 -182 6 -5 -25 -65 -129 -248 -56 -99
-101 -181 -122 -222 -12 -24 -26 -43 -30 -43 -11 0 -642 949 -636 956 4 3 24
-4 47 -15 53 -27 82 -26 110 3 l23 25 77 -48 c42 -26 207 -128 366 -226z m485
-300 c19 -12 60 -38 90 -57 30 -19 108 -67 173 -107 64 -40 116 -76 115 -80 0
-3 -130 -134 -289 -290 l-287 -284 -101 152 c-56 84 -104 158 -107 166 -3 8
63 138 147 289 l153 275 35 -21 c20 -11 52 -31 71 -43z"/>
<path d="M4734 3863 c-159 -164 -343 -354 -410 -423 -67 -69 -150 -155 -184
-192 l-63 -68 -544 0 -543 0 -11 -27 c-10 -26 7 -43 533 -570 351 -351 550
-543 563 -543 12 0 176 156 457 437 381 381 440 443 452 483 8 25 79 283 157
573 137 510 141 528 124 547 -23 25 -29 25 -90 -5 -27 -13 -53 -25 -56 -25 -4
0 -14 20 -24 45 -15 41 -39 65 -63 65 -5 0 -139 -134 -298 -297z m311 117 c19
-42 45 -51 86 -30 15 9 19 7 19 -7 0 -10 -58 -234 -130 -498 l-129 -479 -408
-408 -408 -408 -470 470 -470 470 491 0 491 0 89 93 c421 439 809 837 814 837
4 0 15 -18 25 -40z"/>
<path d="M5368 4107 c-9 -9 -66 -273 -147 -678 l-132 -664 -71 -150 c-39 -82
-93 -197 -120 -255 -51 -107 -71 -148 -223 -470 -172 -362 -185 -392 -185
-403 0 -21 424 -437 445 -437 23 0 1505 1476 1505 1499 0 7 -122 201 -271 430
-150 229 -315 482 -368 564 -389 597 -394 603 -433 564z m271 -487 c88 -135
234 -360 326 -500 91 -140 212 -324 267 -409 l100 -154 -113 -113 -114 -114
-232 0 -232 0 -5 33 c-6 34 -166 1485 -166 1501 0 14 -3 18 169 -244z m-169
-610 l80 -715 -93 -218 -92 -217 -190 -75 c-342 -134 -529 -204 -534 -200 -5
5 27 76 142 315 44 91 92 192 107 225 15 33 49 105 75 160 26 55 85 179 131
277 l83 176 96 484 c106 533 108 539 112 518 2 -8 39 -337 83 -730z m5 -1310
l-540 -540 -152 152 c-84 84 -153 156 -153 160 0 3 26 16 58 28 153 57 672
255 707 270 39 17 42 21 114 191 41 96 85 198 98 227 l23 52 192 0 193 0 -540
-540z"/>
<path d="M3905 3974 c-16 -8 -248 -146 -515 -307 -506 -305 -514 -311 -479
-354 11 -13 31 -14 129 -9 63 4 135 9 160 11 25 2 110 7 190 10 80 4 156 8
170 10 14 2 86 6 160 10 258 13 372 23 383 34 6 6 54 83 107 171 l97 161 157
94 c87 52 164 99 172 106 19 15 18 44 -2 63 -13 14 -59 16 -357 15 -274 0
-348 -3 -372 -15z m505 -87 c0 -6 -12 -18 -27 -25 -16 -6 -55 -29 -88 -50 -56
-36 -66 -49 -154 -195 -106 -179 -81 -163 -271 -172 -63 -3 -149 -7 -190 -10
-41 -3 -109 -7 -150 -10 -41 -2 -131 -7 -200 -10 -69 -3 -135 -8 -147 -11 -58
-12 -15 22 168 132 110 65 214 128 233 139 18 11 73 44 122 73 49 29 98 59
109 65 11 7 31 19 45 28 91 59 89 59 327 59 172 0 223 -3 223 -13z"/>
<path d="M7595 7590 l1640 -1640 2 127 c2 71 -1 808 -5 1638 l-7 1510 -1635 3
-1635 3 1640 -1641z m378 1308 l-47 -48 44 -45 44 -45 48 47 48 48 52 -53 53
-52 -28 -27 -27 -27 37 -38 37 -38 34 33 33 32 56 -58 56 -59 -214 -214 -214
-214 -52 52 c-29 29 -53 57 -53 62 0 6 26 36 57 68 l58 58 -38 37 -37 37 -28
-27 -28 -27 -149 150 -150 150 175 175 175 175 52 -52 53 -52 -47 -48z m-354
-322 l53 -54 -57 -57 -57 -58 171 -171 c94 -94 171 -176 171 -182 0 -5 -19
-29 -43 -52 l-42 -42 -228 228 c-125 125 -227 232 -227 237 0 10 190 205 200
205 3 0 30 -24 59 -54z m1025 -266 c38 -14 107 -81 123 -117 23 -56 16 -123
-19 -194 -24 -49 -61 -93 -152 -184 -165 -164 -247 -207 -348 -180 -113 29
-181 149 -149 262 21 72 155 231 283 336 89 73 193 104 262 77z m365 -336 l44
-46 -299 -299 -299 -299 -52 52 c-29 29 -53 57 -53 63 0 5 131 141 292 302
232 232 295 290 308 283 9 -5 36 -30 59 -56z"/>
<path d="M7802 8727 c-18 -18 -32 -37 -32 -43 0 -5 18 -28 40 -49 l40 -39 38
37 37 37 -45 45 -46 45 -32 -33z"/>
<path d="M8037 8572 l-27 -28 38 -37 38 -37 29 30 29 30 -34 35 c-19 19 -37
35 -40 35 -3 0 -18 -13 -33 -28z"/>
<path d="M8529 8150 c-63 -41 -271 -257 -288 -298 -11 -25 -11 -39 -3 -57 26
-57 96 -22 240 119 160 155 200 241 122 261 -18 4 -38 -2 -71 -25z"/>
<path d="M780 2417 l0 -1637 863 -1 c474 0 1212 -1 1640 -2 427 -2 776 0 775
3 -1 3 -739 741 -1640 1640 l-1638 1635 0 -1638z m1033 25 l229 -229 -46 -45
-45 -45 -32 33 -32 33 -28 -22 c-15 -12 -28 -27 -28 -33 -1 -7 15 -26 35 -44
l37 -32 -39 -39 c-21 -21 -43 -39 -48 -39 -6 0 -50 39 -97 86 -85 84 -88 86
-110 71 l-23 -16 108 -110 108 -109 -42 -41 c-23 -22 -45 -41 -48 -41 -11 0
-532 524 -532 535 0 6 18 29 40 50 l40 39 109 -108 108 -108 20 21 20 21 -89
87 c-48 48 -88 92 -88 98 0 6 18 28 39 49 l39 38 35 -38 36 -39 30 29 31 30
-32 33 -32 33 39 40 c21 22 44 40 50 40 5 0 113 -103 238 -228z m-404 -396
l233 -233 -103 -102 -102 -102 -56 55 -56 56 60 60 60 60 -180 180 -179 180
39 40 c21 22 42 40 45 40 3 0 110 -105 239 -234z m1043 -243 c126 -125 228
-232 228 -238 0 -5 -19 -29 -42 -52 l-42 -43 -93 92 -92 92 -17 -39 c-11 -28
-15 -56 -11 -91 5 -49 44 -141 74 -175 12 -15 8 -22 -33 -65 l-47 -48 -29 35
c-47 55 -109 191 -115 254 -5 51 -8 55 -32 56 -53 1 -87 12 -176 55 -39 18
-86 47 -105 63 l-35 30 47 47 c44 44 48 47 65 32 22 -19 77 -48 121 -64 56
-20 172 -4 172 24 0 4 -38 45 -85 92 l-85 84 42 43 c23 24 47 43 53 43 5 0
112 -102 237 -227z m-102 -628 c0 -5 -19 -29 -42 -52 l-42 -43 -106 105 -105
105 -70 -70 c-38 -38 -74 -70 -79 -70 -14 0 -106 91 -106 104 0 6 31 42 70 81
l70 70 -105 105 -105 104 47 48 48 48 262 -262 c145 -145 263 -267 263 -273z"/>
<path d="M1632 2387 c-12 -13 -22 -28 -22 -33 0 -13 93 -104 106 -104 6 0 21
11 34 25 l24 25 -54 55 c-30 30 -57 55 -60 55 -4 0 -16 -10 -28 -23z"/>
</g>
</svg>
