<?xml version="1.0" standalone="no"?>
<!DOCTYPE svg PUBLIC "-//W3C//DTD SVG 20010904//EN"
 "http://www.w3.org/TR/2001/REC-SVG-20010904/DTD/svg10.dtd">
<svg version="1.0" xmlns="http://www.w3.org/2000/svg"
 width="1000.000000pt" height="1000.000000pt" viewBox="0 0 1000.000000 1000.000000"
 preserveAspectRatio="xMidYMid meet">

<g transform="translate(0.000000,1000.000000) scale(0.100000,-0.100000)"
fill="#000000" stroke="none">
<path d="M380 5003 l0 -4623 4625 0 4625 0 0 4620 c0 3689 -3 4620 -12 4621
-7 1 -2089 2 -4625 3 l-4613 1 0 -4622z m9195 -2 l0 -4575 -4560 -1 c-2508 0
-4566 1 -4572 3 -10 3 -13 928 -13 4578 l0 4574 4573 -2 4572 -3 0 -4574z"/>
<path d="M770 6812 l0 -2417 1808 -1808 1807 -1807 2418 0 2417 0 0 2418 0
2417 -1808 1808 -1807 1807 -2418 0 -2417 0 0 -2418z m6612 581 l1788 -1788 0
-2387 0 -2388 -2382 0 -2383 0 -1792 1792 -1793 1793 0 2382 0 2383 2387 0
2388 0 1787 -1787z"/>
<path d="M5150 7683 c-192 -16 -385 -41 -470 -63 -19 -5 -57 -14 -85 -21 -172
-40 -384 -116 -567 -202 -94 -44 -210 -109 -343 -190 -11 -7 -80 -57 -155
-112 -155 -114 -419 -367 -542 -517 -249 -307 -429 -646 -544 -1025 -42 -137
-84 -329 -84 -382 0 -99 124 -148 195 -77 15 15 29 49 40 102 10 43 19 82 21
86 2 3 55 -7 117 -24 222 -59 441 -119 443 -121 2 -2 -6 -57 -18 -122 -28
-162 -30 -470 -5 -630 10 -60 19 -119 20 -129 2 -22 -2 -24 -273 -96 -107 -29
-214 -58 -238 -66 -33 -10 -44 -10 -47 -1 -7 22 -25 121 -39 215 -16 106 -33
137 -84 159 -66 28 -136 -9 -152 -80 -21 -95 77 -520 181 -787 266 -684 791
-1260 1445 -1588 222 -111 489 -208 637 -232 220 -35 455 92 548 298 25 55 49
162 49 222 0 120 -57 254 -150 353 -72 77 -135 112 -295 165 -208 68 -305 112
-470 214 -117 72 -153 99 -259 194 -191 170 -342 367 -456 596 -137 276 -199
546 -200 862 -1 670 318 1258 888 1639 305 204 664 309 1057 310 536 1 1014
-198 1392 -580 105 -106 219 -251 207 -262 -5 -4 -43 -22 -84 -41 -41 -18
-103 -46 -138 -62 -88 -41 -363 -165 -582 -263 -102 -45 -225 -101 -274 -124
l-88 -41 -47 28 c-220 136 -502 148 -718 31 -196 -106 -324 -281 -369 -501
-32 -157 -2 -334 81 -485 49 -88 179 -218 265 -266 292 -161 635 -114 865 119
135 138 204 305 205 498 l1 91 100 70 c55 39 140 99 189 135 283 207 743 535
753 538 13 3 59 -108 111 -268 44 -136 66 -182 121 -252 114 -143 312 -215
500 -181 203 37 375 207 416 412 18 92 6 196 -40 343 -169 542 -501 1045 -921
1397 -63 53 -124 103 -136 111 -12 8 -51 35 -86 60 -378 272 -886 466 -1373
525 -118 14 -429 25 -515 18z m345 -237 c119 -6 201 -15 325 -37 104 -19 101
-14 73 -116 -13 -48 -41 -158 -64 -243 -63 -243 -53 -224 -108 -217 -25 4 -57
9 -71 12 -148 31 -482 30 -673 -4 l-109 -18 -7 21 c-4 11 -39 137 -76 279 -52
195 -66 260 -56 266 40 25 483 72 611 64 19 -1 89 -4 155 -7z m-935 -390 c39
-142 70 -266 70 -276 0 -14 -23 -27 -97 -56 -203 -77 -435 -211 -598 -347
l-80 -66 -202 202 c-112 111 -203 206 -202 212 1 23 277 233 432 329 169 104
578 286 600 266 4 -4 39 -123 77 -264z m1942 130 c105 -49 283 -154 393 -231
115 -81 283 -217 284 -230 1 -11 -390 -405 -402 -405 -4 0 -40 26 -80 58 -39
33 -101 79 -137 104 -61 42 -236 148 -244 148 -3 0 -37 15 -78 34 -40 19 -110
48 -155 66 -46 17 -83 37 -83 43 0 12 134 517 144 544 5 13 216 -65 358 -131z
m-2825 -1056 c-84 -100 -114 -139 -171 -223 -78 -113 -190 -327 -231 -442 -15
-44 -32 -84 -36 -89 -8 -9 -113 16 -379 90 -47 13 -106 28 -132 35 -27 6 -48
14 -48 18 0 4 13 45 29 92 105 305 268 589 490 856 l76 91 207 -206 c178 -177
206 -208 195 -222z m3770 319 c216 -262 378 -555 489 -884 67 -200 74 -266 36
-350 -82 -180 -290 -230 -449 -109 -47 36 -76 92 -126 244 -25 74 -61 170 -81
214 -20 43 -36 86 -36 95 0 9 20 29 45 45 98 61 128 115 101 181 -16 38 -47
62 -93 71 -22 4 -52 -3 -112 -29 l-81 -36 -32 47 c-17 25 -60 81 -95 123 -35
43 -63 82 -63 86 0 14 395 403 407 401 6 -2 47 -46 90 -99z m-1177 -1214 c0
-2 -33 -28 -74 -57 -247 -177 -435 -312 -612 -440 -111 -80 -211 -151 -222
-157 -84 -45 -192 67 -150 156 15 32 71 63 308 167 85 38 187 84 227 102 40
19 74 34 77 34 2 0 52 23 111 50 59 28 108 50 110 50 1 0 45 20 96 44 79 36
110 50 127 55 1 1 2 -1 2 -4z m-827 -84 c15 -6 27 -12 27 -15 0 -2 -26 -14
-57 -27 -32 -12 -116 -50 -188 -84 -199 -94 -250 -163 -250 -335 0 -83 3 -102
28 -151 67 -137 230 -225 369 -199 63 12 138 55 288 165 63 46 119 84 123 84
12 1 0 -35 -39 -115 -38 -80 -146 -192 -212 -220 -201 -86 -402 -53 -550 90
-94 90 -142 206 -142 342 0 138 47 253 141 344 48 46 140 103 184 114 17 4 46
11 65 16 43 11 175 5 213 -9z m-2184 -1196 c12 -31 21 -58 21 -61 0 -3 23 -56
52 -117 85 -184 191 -352 301 -481 l59 -69 -207 -206 -206 -206 -22 26 c-206
246 -339 449 -451 687 -48 105 -130 322 -123 329 4 3 115 35 237 68 30 8 111
30 180 49 69 18 128 34 132 35 4 0 16 -24 27 -54z m638 -928 c83 -74 164 -131
343 -242 96 -59 386 -180 480 -200 84 -18 174 -85 212 -160 14 -25 23 -67 26
-113 6 -91 -14 -148 -75 -213 -80 -85 -189 -111 -319 -74 -399 113 -762 311
-1079 589 l-40 35 205 205 c113 113 206 206 207 206 2 0 20 -15 40 -33z"/>
<path d="M4797 6449 c-36 -28 -54 -88 -38 -127 22 -52 55 -75 110 -76 57 -1
93 25 111 79 15 44 -11 110 -51 130 -41 22 -101 19 -132 -6z"/>
<path d="M6518 6022 c-36 -4 -84 -52 -92 -92 -13 -68 43 -133 115 -133 131 0
159 188 33 221 -16 4 -41 6 -56 4z"/>
<path d="M3600 5241 c-14 -4 -35 -22 -47 -40 -58 -86 3 -188 106 -178 55 6 91
40 98 94 12 91 -62 150 -157 124z"/>
<path d="M2354 4766 c-28 -28 -34 -41 -34 -78 0 -53 21 -85 67 -104 92 -39
184 47 153 142 -16 48 -53 74 -107 74 -38 0 -50 -5 -79 -34z"/>
<path d="M6645 4378 c-16 -12 -255 -248 -531 -525 -529 -530 -529 -529 -509
-595 12 -36 303 -326 342 -339 72 -24 66 -29 592 495 271 270 506 509 522 530
33 45 38 98 13 136 -27 41 -277 290 -306 306 -40 21 -91 17 -123 -8z m117
-305 c21 -20 38 -44 38 -53 0 -16 -798 -820 -815 -820 -10 0 -95 80 -95 90 0
10 815 820 825 820 5 0 26 -17 47 -37z"/>
<path d="M6964 3664 c-17 -8 -113 -97 -212 -197 -148 -150 -181 -189 -187
-219 -18 -93 80 -168 163 -124 15 8 111 99 215 203 187 189 187 189 187 234 0
51 -18 82 -60 104 -37 19 -67 19 -106 -1z"/>
<path d="M4045 3566 c-60 -26 -83 -102 -51 -165 30 -57 124 -70 174 -23 60 56
48 153 -23 186 -40 19 -60 20 -100 2z"/>
<path d="M6378 3082 c-88 -54 -63 -189 37 -208 74 -14 138 41 138 118 0 35 -6
47 -36 75 -42 38 -94 44 -139 15z"/>
<path d="M7595 7590 l1640 -1640 2 127 c2 71 -1 808 -5 1638 l-7 1510 -1635 3
-1635 3 1640 -1641z m577 1122 l-40 -40 -93 94 c-52 52 -99 94 -105 94 -6 0
-17 -7 -24 -16 -12 -13 -1 -27 73 -102 48 -48 87 -92 87 -97 0 -13 -62 -75
-74 -75 -6 0 -50 39 -98 87 -84 84 -89 87 -105 70 -17 -18 -13 -23 98 -132 64
-62 126 -116 139 -120 19 -6 39 9 134 104 61 61 116 111 121 111 13 0 105 -92
105 -105 0 -6 -27 -37 -60 -70 l-60 -59 37 -38 37 -38 -47 -47 -47 -47 -38 37
-38 37 -59 -60 -59 -60 -58 57 c-38 38 -54 61 -48 67 17 17 11 34 -15 40 -27
7 -345 311 -345 330 0 6 71 82 157 168 l158 158 154 -154 153 -154 -40 -40z
m-530 -89 c53 -52 55 -58 31 -85 -16 -18 -12 -24 92 -128 101 -101 135 -126
135 -100 0 6 7 13 16 17 16 6 114 -81 114 -102 0 -6 -53 -63 -118 -128 l-117
-117 -223 223 c-122 122 -222 226 -222 230 0 10 228 237 237 237 4 0 29 -21
55 -47z m822 -395 c74 -48 115 -64 172 -67 45 -2 56 2 86 28 l35 30 51 -52
c29 -29 52 -56 52 -59 0 -4 -11 -24 -25 -44 -43 -63 -28 -150 40 -245 19 -27
35 -52 35 -56 0 -12 -73 -83 -85 -83 -31 2 -138 191 -155 277 -7 31 -17 53
-24 53 -24 0 -130 37 -168 58 -81 46 -148 94 -148 108 0 8 70 84 79 84 2 0 27
-15 55 -32z m93 -320 c145 -145 263 -268 263 -273 0 -6 -18 -29 -40 -50 l-40
-39 -270 269 -270 270 42 42 c23 24 45 43 48 43 2 0 123 -118 267 -262z m-295
19 c103 -50 252 -197 313 -309 83 -153 -32 -281 -187 -208 -102 47 -277 223
-324 324 -30 65 -31 113 -1 157 43 63 115 77 199 36z"/>
<path d="M7552 8418 c-10 -10 12 -37 100 -125 62 -62 116 -113 119 -113 4 0
10 8 13 17 5 12 -22 45 -101 125 -59 59 -110 108 -113 108 -3 0 -11 -5 -18
-12z"/>
<path d="M8184 7796 c-9 -22 21 -70 88 -142 104 -111 188 -156 188 -101 0 34
-44 90 -139 180 -82 77 -124 96 -137 63z"/>
<path d="M780 2417 l0 -1637 863 -1 c474 0 1212 -1 1640 -2 427 -2 776 0 775
3 -1 3 -739 741 -1640 1640 l-1638 1635 0 -1638z m930 130 l51 -49 -56 -59
c-58 -61 -94 -126 -95 -170 0 -15 7 -50 17 -78 l16 -52 -38 -39 c-22 -22 -44
-40 -50 -40 -23 0 -73 102 -89 183 l-12 60 -40 3 c-70 7 -193 55 -201 80 -4
13 74 94 91 94 6 0 18 -6 25 -12 7 -8 37 -13 76 -12 57 0 71 5 117 37 30 20
69 52 88 72 19 19 37 34 41 33 4 -2 30 -25 59 -51z m270 -262 l54 -55 -57 -58
c-31 -32 -57 -62 -57 -67 0 -5 16 -25 35 -45 l35 -36 -45 -44 -45 -44 -40 39
-40 39 -63 -62 -63 -62 -52 53 c-29 29 -52 57 -52 62 0 10 320 335 330 335 3
0 30 -25 60 -55z m-657 -67 c80 -43 213 -175 253 -253 45 -85 50 -129 22 -184
-29 -57 -64 -82 -121 -88 -65 -8 -161 42 -256 132 -167 157 -210 296 -119 382
40 37 50 41 112 42 36 1 63 -7 109 -31z m1054 -445 l-47 -48 -65 65 -65 64
-65 -64 -65 -64 62 -63 62 -63 -44 -45 -44 -45 -63 62 -63 63 -72 -73 -73 -72
53 -53 c30 -30 70 -64 91 -75 l37 -21 220 219 c120 121 224 220 229 220 6 0
31 -20 55 -45 l44 -45 -107 -108 c-96 -97 -106 -110 -92 -122 14 -12 30 0 126
96 l109 109 51 -51 51 -51 -296 -297 c-163 -163 -299 -296 -303 -296 -11 0
-93 83 -93 94 0 6 61 72 136 147 120 120 133 137 119 149 -14 12 -32 -3 -150
-120 l-135 -134 -45 44 c-51 50 -53 59 -25 85 19 17 19 18 -18 36 -20 10 -84
66 -142 124 l-105 105 275 275 275 275 115 -115 115 -115 -48 -47z"/>
<path d="M1218 2099 c-22 -13 -23 -47 -2 -79 31 -46 139 -151 171 -166 59 -29
97 -1 73 55 -17 42 -144 170 -186 187 -39 16 -34 16 -56 3z"/>
</g>
</svg>
