<?xml version="1.0" standalone="no"?>
<!DOCTYPE svg PUBLIC "-//W3C//DTD SVG 20010904//EN"
 "http://www.w3.org/TR/2001/REC-SVG-20010904/DTD/svg10.dtd">
<svg version="1.0" xmlns="http://www.w3.org/2000/svg"
 width="1000.000000pt" height="1000.000000pt" viewBox="0 0 1000.000000 1000.000000"
 preserveAspectRatio="xMidYMid meet">

<g transform="translate(0.000000,1000.000000) scale(0.100000,-0.100000)"
fill="#000000" stroke="none">
<path d="M380 5003 l0 -4623 4625 0 4625 0 0 4620 c0 3689 -3 4620 -12 4621
-7 1 -2089 2 -4625 3 l-4613 1 0 -4622z m9195 -2 l0 -4575 -4560 -1 c-2508 0
-4566 1 -4572 3 -10 3 -13 928 -13 4578 l0 4574 4573 -2 4572 -3 0 -4574z"/>
<path d="M770 6812 l0 -2417 1808 -1808 1807 -1807 2418 0 2417 0 0 2418 0
2417 -1808 1808 -1807 1807 -2418 0 -2417 0 0 -2418z m6612 581 l1788 -1788 0
-2387 0 -2388 -2382 0 -2383 0 -1792 1792 -1793 1793 0 2382 0 2383 2387 0
2388 0 1787 -1787z"/>
<path d="M5965 7233 c-155 -8 -383 -37 -490 -62 -22 -5 -74 -17 -115 -26 -195
-43 -478 -143 -685 -244 -195 -95 -314 -167 -549 -331 -279 -195 -756 -713
-773 -839 -12 -88 46 -160 135 -168 60 -5 97 17 154 93 328 434 661 719 1104
946 611 312 1299 411 1969 281 136 -26 142 -33 169 -183 47 -256 60 -574 36
-853 -15 -173 -11 -205 35 -246 76 -67 187 -44 235 48 38 73 54 611 25 856
-24 204 -53 357 -81 424 -55 131 -174 215 -349 246 -112 20 -225 36 -320 45
-106 11 -397 18 -500 13z"/>
<path d="M1753 5135 c-101 -44 -110 -198 -14 -257 l36 -23 568 -3 c312 -1 567
-5 567 -8 0 -3 -11 -44 -25 -92 -31 -109 -69 -291 -92 -447 -26 -173 -26 -707
0 -880 55 -367 97 -457 246 -538 150 -82 723 -139 1086 -108 312 27 589 86
865 184 746 265 1389 800 1789 1487 64 110 93 167 167 328 l33 72 83 0 c46 1
327 2 625 3 532 2 542 2 570 23 99 74 96 205 -7 256 -33 17 -209 18 -3250 18
-2702 -1 -3220 -3 -3247 -15z m3800 -285 c34 0 33 -10 -18 -115 -132 -275
-469 -403 -758 -290 -125 49 -255 170 -312 290 -46 97 -50 113 -29 117 10 2
259 2 553 1 295 -2 549 -3 564 -3z m1090 0 c15 0 -126 -262 -213 -393 -153
-231 -321 -427 -515 -600 -118 -106 -131 -116 -218 -181 -448 -331 -971 -536
-1507 -591 -30 -3 -72 -8 -93 -10 -46 -6 -419 -7 -462 -1 -16 3 -61 7 -100 11
-99 8 -304 45 -342 60 -43 18 -57 50 -82 190 -61 352 -57 772 10 1110 20 101
79 327 98 378 l11 27 441 -2 442 -3 21 -80 c62 -233 219 -431 443 -556 160
-90 420 -127 603 -85 198 45 317 110 455 250 125 126 191 239 235 405 10 39
24 67 33 70 12 4 676 5 740 1z"/>
<path d="M7595 7590 l1640 -1640 2 127 c2 71 -1 808 -5 1638 l-7 1510 -1635 3
-1635 3 1640 -1641z m398 1351 c103 -47 260 -200 312 -305 78 -156 -47 -297
-202 -227 -136 62 -321 263 -341 371 -5 25 -5 60 0 77 10 40 71 100 106 106
54 8 64 6 125 -22z m-103 -426 l265 -265 -48 -47 -47 -48 -270 270 -270 270
42 42 c23 24 47 43 53 43 5 0 129 -119 275 -265z m-308 58 c26 -26 48 -52 48
-59 0 -6 -21 -31 -46 -54 l-46 -43 183 -183 183 -184 -39 -40 c-21 -22 -44
-40 -50 -40 -5 0 -116 106 -245 235 l-235 235 90 90 c49 49 94 90 99 90 6 0
32 -21 58 -47z m1133 -323 l150 -150 -138 -137 -137 -138 -150 150 c-82 82
-150 154 -150 160 0 13 252 265 265 265 6 0 78 -68 160 -150z m-67 -728 l-93
-91 -171 171 c-157 156 -194 184 -194 145 0 -6 77 -89 172 -184 l171 -172 -37
-37 -37 -37 -232 231 -232 232 90 90 90 90 172 -172 c151 -151 174 -170 188
-158 14 12 -3 33 -157 187 l-172 173 39 40 39 40 229 -228 228 -228 -93 -92z
m357 458 l49 -50 -144 -145 c-80 -80 -148 -145 -152 -145 -3 0 -29 24 -57 53
l-50 52 142 143 c78 78 146 142 152 142 6 0 33 -23 60 -50z"/>
<path d="M7904 8806 c-13 -34 10 -73 96 -161 93 -94 131 -118 168 -104 41 16
23 62 -62 156 -66 74 -120 113 -160 120 -27 4 -37 2 -42 -11z"/>
<path d="M8525 8160 l-49 -50 47 -47 47 -48 52 52 52 53 -44 45 c-24 25 -47
45 -50 45 -3 0 -28 -23 -55 -50z"/>
<path d="M780 2417 l0 -1637 863 -1 c474 0 1212 -1 1640 -2 427 -2 776 0 775
3 -1 3 -739 741 -1640 1640 l-1638 1635 0 -1638z m930 130 l51 -49 -56 -59
c-58 -61 -94 -126 -95 -170 0 -15 7 -50 17 -78 l16 -52 -38 -39 c-22 -22 -44
-40 -50 -40 -23 0 -73 102 -89 183 l-12 60 -40 3 c-70 7 -193 55 -201 80 -4
13 74 94 91 94 6 0 18 -6 25 -12 7 -8 37 -13 76 -12 57 0 71 5 117 37 30 20
69 52 88 72 19 19 37 34 41 33 4 -2 30 -25 59 -51z m270 -262 l54 -55 -57 -58
c-31 -32 -57 -62 -57 -67 0 -5 16 -25 35 -45 l35 -36 -45 -44 -45 -44 -40 39
-40 39 -63 -62 -63 -62 -52 53 c-29 29 -52 57 -52 62 0 10 320 335 330 335 3
0 30 -25 60 -55z m-657 -67 c80 -43 213 -175 253 -253 45 -85 50 -129 22 -184
-29 -57 -64 -82 -121 -88 -65 -8 -161 42 -256 132 -167 157 -210 296 -119 382
40 37 50 41 112 42 36 1 63 -7 109 -31z m1054 -445 l-47 -48 -65 65 -65 64
-65 -64 -65 -64 62 -63 62 -63 -44 -45 -44 -45 -63 62 -63 63 -72 -73 -73 -72
53 -53 c30 -30 70 -64 91 -75 l37 -21 220 219 c120 121 224 220 229 220 6 0
31 -20 55 -45 l44 -45 -107 -108 c-96 -97 -106 -110 -92 -122 14 -12 30 0 126
96 l109 109 51 -51 51 -51 -296 -297 c-163 -163 -299 -296 -303 -296 -11 0
-93 83 -93 94 0 6 61 72 136 147 120 120 133 137 119 149 -14 12 -32 -3 -150
-120 l-135 -134 -45 44 c-51 50 -53 59 -25 85 19 17 19 18 -18 36 -20 10 -84
66 -142 124 l-105 105 275 275 275 275 115 -115 115 -115 -48 -47z"/>
<path d="M1218 2099 c-22 -13 -23 -47 -2 -79 31 -46 139 -151 171 -166 59 -29
97 -1 73 55 -17 42 -144 170 -186 187 -39 16 -34 16 -56 3z"/>
</g>
</svg>
