<?xml version="1.0" standalone="no"?>
<!DOCTYPE svg PUBLIC "-//W3C//DTD SVG 20010904//EN"
 "http://www.w3.org/TR/2001/REC-SVG-20010904/DTD/svg10.dtd">
<svg version="1.0" xmlns="http://www.w3.org/2000/svg"
 width="1000.000000pt" height="1000.000000pt" viewBox="0 0 1000.000000 1000.000000"
 preserveAspectRatio="xMidYMid meet">

<g transform="translate(0.000000,1000.000000) scale(0.100000,-0.100000)"
fill="#000000" stroke="none">
<path d="M380 5003 l0 -4623 4625 0 4625 0 0 4620 c0 3689 -3 4620 -12 4621
-7 1 -2089 2 -4625 3 l-4613 1 0 -4622z m9195 -2 l0 -4575 -4560 -1 c-2508 0
-4566 1 -4572 3 -10 3 -13 928 -13 4578 l0 4574 4573 -2 4572 -3 0 -4574z"/>
<path d="M770 6812 l0 -2417 1808 -1808 1807 -1807 2418 0 2417 0 0 2418 0
2417 -1808 1808 -1807 1807 -2418 0 -2417 0 0 -2418z m6612 581 l1788 -1788 0
-2387 0 -2388 -2382 0 -2383 0 -1792 1792 -1793 1793 0 2382 0 2383 2387 0
2388 0 1787 -1787z"/>
<path d="M4659 8176 c-2 -2 -48 -7 -102 -10 -114 -8 -341 -46 -477 -81 -971
-245 -1775 -989 -2096 -1939 -70 -206 -121 -441 -144 -661 -17 -156 -15 -494
4 -651 69 -575 285 -1089 646 -1538 111 -138 344 -370 470 -467 90 -70 305
-219 316 -219 3 0 18 -8 32 -19 46 -31 221 -121 332 -168 255 -109 522 -181
810 -219 197 -26 585 -25 760 1 389 59 653 140 964 297 782 394 1357 1118
1564 1968 92 374 107 822 42 1213 -153 927 -753 1741 -1598 2171 -175 89 -334
151 -541 212 -102 30 -349 80 -446 89 -38 4 -79 9 -90 12 -25 5 -441 14 -446
9z m391 -201 c47 -3 96 -7 110 -9 14 -3 47 -7 73 -11 306 -38 686 -169 977
-336 235 -135 416 -276 626 -491 426 -435 684 -967 770 -1588 22 -155 25 -539
6 -680 -36 -263 -82 -451 -164 -670 -175 -469 -484 -892 -888 -1215 -73 -58
-279 -198 -355 -240 -201 -113 -449 -212 -670 -269 -473 -122 -947 -123 -1420
-1 -980 252 -1755 1030 -2009 2018 -93 360 -111 783 -50 1157 161 982 846
1814 1784 2168 141 53 366 115 479 133 36 5 98 15 136 20 148 23 387 28 595
14z"/>
<path d="M4560 7749 c-225 -28 -412 -69 -443 -97 -35 -31 -38 -58 -18 -140 91
-363 446 -1662 460 -1682 28 -40 58 -50 121 -39 86 15 180 18 245 8 79 -12
199 -61 255 -104 25 -19 63 -49 84 -65 29 -22 50 -30 79 -30 41 0 45 4 660
618 341 339 632 635 648 656 42 57 38 87 -18 148 -123 132 -420 349 -608 445
-258 132 -504 213 -800 264 -138 23 -536 34 -665 18z m568 -200 c428 -56 814
-215 1154 -476 41 -32 94 -75 118 -97 l43 -38 -556 -556 -555 -555 -63 42
c-132 86 -310 135 -473 129 l-90 -3 -47 175 c-233 865 -350 1306 -352 1323 -2
23 1 24 178 51 136 21 167 23 345 23 94 0 212 -7 298 -18z"/>
<path d="M2385 5911 c-37 -16 -54 -46 -74 -131 -94 -405 -93 -838 4 -1220 90
-357 283 -746 496 -1002 171 -206 214 -241 279 -230 31 5 1282 1251 1306 1300
20 44 11 71 -55 153 -118 145 -164 330 -132 522 21 123 5 141 -170 187 -63 16
-190 50 -284 75 -93 25 -201 54 -240 65 -38 10 -198 53 -355 95 -796 214 -739
200 -775 186z m185 -227 c30 -8 87 -23 125 -34 39 -10 162 -43 275 -73 113
-31 331 -89 485 -131 154 -41 341 -91 415 -112 l135 -36 1 -122 c0 -93 5 -139
22 -199 27 -94 69 -190 111 -251 17 -24 31 -48 31 -53 0 -4 -249 -257 -553
-561 l-552 -552 -51 57 c-438 499 -648 1204 -559 1873 20 145 34 210 48 210 7
0 37 -7 67 -16z"/>
<path d="M4757 5579 c-72 -11 -166 -60 -220 -114 -84 -84 -122 -185 -115 -312
15 -319 390 -491 646 -296 76 59 125 130 148 217 76 284 -165 550 -459 505z
m151 -204 c208 -87 144 -405 -82 -407 -182 -2 -282 213 -163 349 60 68 162 92
245 58z"/>
<path d="M5474 5071 c-24 -15 -37 -34 -52 -81 -65 -192 -206 -336 -397 -405
-84 -31 -105 -52 -105 -106 0 -20 78 -329 174 -685 96 -357 195 -728 220 -824
61 -229 69 -252 107 -274 37 -22 62 -18 204 29 337 112 617 269 875 491 380
327 639 720 791 1199 56 174 43 193 -171 249 -80 21 -185 50 -235 63 -49 13
-97 26 -105 28 -19 5 -502 134 -1027 276 -155 41 -227 59 -237 59 -6 0 -25 -9
-42 -19z m339 -257 c117 -31 311 -83 432 -115 298 -80 366 -98 615 -164 118
-31 221 -59 228 -61 18 -5 10 -40 -38 -163 -111 -284 -285 -558 -497 -781
-193 -203 -419 -368 -677 -495 -136 -67 -331 -144 -340 -134 -2 2 -34 119 -71
259 -37 140 -82 311 -101 380 -95 347 -234 873 -232 875 2 2 23 13 48 25 163
81 305 221 375 369 16 34 33 61 38 61 5 0 104 -25 220 -56z"/>
<path d="M7595 7590 l1640 -1640 2 127 c2 71 -1 808 -5 1638 l-7 1510 -1635 3
-1635 3 1640 -1641z m472 1308 l52 -52 -152 -155 c-171 -176 -207 -230 -207
-318 0 -28 4 -63 9 -76 8 -21 3 -30 -40 -73 -47 -46 -49 -47 -64 -29 -25 34
-46 107 -52 183 l-6 72 -58 1 c-33 1 -62 2 -66 4 -5 1 -21 5 -38 10 -38 10
-105 45 -105 54 0 4 20 26 44 50 40 39 47 42 77 35 131 -30 215 15 424 225 66
67 122 121 125 121 2 0 28 -23 57 -52z m275 -255 c26 -26 48 -52 48 -57 0 -6
-50 -60 -110 -121 l-110 -111 35 -34 c19 -19 35 -39 35 -45 0 -6 -20 -31 -45
-55 l-45 -44 -40 39 -40 39 -135 -134 -135 -135 -57 58 -58 57 295 295 c162
162 299 295 305 295 5 0 31 -21 57 -47z m660 -765 l-42 -43 -180 180 -179 179
-26 -24 c-14 -13 -25 -28 -25 -34 0 -6 79 -90 175 -186 l175 -175 -42 -42 -42
-43 -91 90 -91 91 -19 -21 c-19 -21 -18 -21 83 -123 56 -56 102 -107 102 -113
0 -5 -18 -28 -40 -49 l-40 -39 -267 264 c-147 146 -269 266 -272 268 -3 1 16
24 42 50 l47 47 105 -105 c104 -103 104 -104 125 -85 l21 19 -88 88 -88 88
115 115 115 115 235 -235 235 -235 -43 -42z m-592 -123 l235 -235 -95 -95
c-52 -52 -99 -95 -104 -95 -6 0 -34 23 -63 52 l-53 52 57 58 58 58 -180 180
-179 180 39 40 c21 22 42 40 45 40 3 0 111 -106 240 -235z"/>
<path d="M780 2417 l0 -1637 863 -1 c474 0 1212 -1 1640 -2 427 -2 776 0 775
3 -1 3 -739 741 -1640 1640 l-1638 1635 0 -1638z m875 403 l39 -40 -148 -149
-149 -150 73 -76 74 -76 -35 -34 -34 -35 -118 118 -117 118 182 182 c101 100
185 182 188 182 3 0 24 -18 45 -40z m175 -398 c0 -8 -13 -38 -29 -66 -62 -110
-80 -146 -76 -146 3 0 51 25 107 55 55 30 104 55 107 55 4 0 25 -18 46 -40 33
-34 37 -42 25 -50 -8 -5 -18 -10 -21 -10 -4 0 -77 -34 -164 -76 l-157 -76 -39
38 c-21 21 -39 44 -39 51 0 8 37 90 82 184 l81 170 39 -38 c21 -20 38 -43 38
-51z m458 -455 l3 -67 64 0 65 0 0 -53 0 -52 -67 0 -68 0 -3 -67 c-3 -78 -3
-78 -89 -69 -8 1 -13 25 -15 69 l-3 67 -65 0 -65 0 0 50 0 50 68 3 67 3 0 63
c0 34 3 66 7 69 3 4 27 6 52 4 l46 -3 3 -67z m-950 -144 l-32 -33 -85 82 c-47
46 -87 84 -90 86 -3 1 11 18 29 37 l34 35 88 -87 88 -87 -32 -33z m590 70
l-42 -43 -38 37 c-21 20 -38 42 -38 47 0 6 17 27 37 48 l37 38 43 -42 43 -42
-42 -43z m-301 35 l43 -42 -72 -73 -73 -73 48 -47 47 -48 73 73 73 72 44 -45
44 -45 -184 -185 -185 -185 -45 45 -45 45 78 78 77 77 -47 48 -48 47 -77 -77
-78 -77 -40 39 c-22 21 -40 44 -40 49 0 10 350 366 360 366 2 0 24 -19 47 -42z
m1055 -135 c79 -46 118 -145 84 -211 -24 -47 -70 -75 -115 -70 -38 3 -38 3
-29 -24 20 -57 -38 -149 -103 -163 -64 -14 -118 3 -168 53 -77 77 -88 173 -28
230 l23 22 43 -43 c35 -37 40 -46 28 -56 -24 -20 -26 -49 -5 -76 27 -34 60
-32 92 6 32 38 32 50 1 87 -14 17 -25 32 -25 35 0 3 14 20 31 37 31 31 32 31
53 12 33 -30 43 -33 70 -21 29 13 40 39 31 68 -8 27 -34 34 -60 17 -21 -14
-25 -12 -64 28 -40 40 -41 43 -24 59 44 39 109 43 165 10z m-575 -371 c13 -36
14 -49 4 -82 -23 -77 -97 -140 -165 -140 -53 0 -86 17 -141 71 l-51 49 -59
-60 c-33 -33 -64 -60 -70 -60 -6 0 -29 18 -50 40 l-39 40 184 185 185 185 92
-92 c63 -63 99 -107 110 -136z"/>
<path d="M1875 1440 l-49 -50 34 -35 c49 -50 98 -45 129 12 14 27 -1 63 -41
100 l-24 23 -49 -50z"/>
</g>
</svg>
