<?xml version="1.0" standalone="no"?>
<!DOCTYPE svg PUBLIC "-//W3C//DTD SVG 20010904//EN"
 "http://www.w3.org/TR/2001/REC-SVG-20010904/DTD/svg10.dtd">
<svg version="1.0" xmlns="http://www.w3.org/2000/svg"
 width="1000.000000pt" height="1000.000000pt" viewBox="0 0 1000.000000 1000.000000"
 preserveAspectRatio="xMidYMid meet">

<g transform="translate(0.000000,1000.000000) scale(0.100000,-0.100000)"
fill="#000000" stroke="none">
<path d="M380 5003 l0 -4623 4625 0 4625 0 0 4620 c0 3689 -3 4620 -12 4621
-7 1 -2089 2 -4625 3 l-4613 1 0 -4622z m9195 -2 l0 -4575 -4560 -1 c-2508 0
-4566 1 -4572 3 -10 3 -13 928 -13 4578 l0 4574 4573 -2 4572 -3 0 -4574z"/>
<path d="M770 6812 l0 -2417 1808 -1808 1807 -1807 2418 0 2417 0 0 2418 0
2417 -1808 1808 -1807 1807 -2418 0 -2417 0 0 -2418z m6612 581 l1788 -1788 0
-2387 0 -2388 -2382 0 -2383 0 -1792 1792 -1793 1793 0 2382 0 2383 2387 0
2388 0 1787 -1787z"/>
<path d="M4610 8025 c-183 -33 -366 -174 -448 -345 -46 -95 -74 -217 -71 -300
2 -53 2 -55 -22 -52 -76 11 -238 4 -293 -12 -218 -64 -382 -225 -448 -436 -19
-62 -23 -97 -22 -195 0 -103 4 -130 26 -193 35 -97 80 -171 149 -243 l57 -59
-32 -22 c-157 -109 -254 -272 -276 -467 -14 -121 1 -196 81 -415 l71 -196 -72
-77 c-467 -499 -619 -1211 -399 -1866 123 -368 386 -709 719 -931 233 -157
567 -275 845 -301 71 -6 329 -7 365 -1 14 2 48 7 75 11 404 52 836 281 1106
586 127 144 201 253 282 414 75 150 101 226 93 268 -10 55 -76 103 -127 93
-53 -10 -77 -35 -110 -114 -113 -273 -262 -483 -462 -649 -219 -182 -441 -291
-722 -353 -113 -26 -408 -36 -525 -19 -257 37 -496 128 -708 271 -101 68 -112
78 -232 198 -269 272 -423 605 -461 997 -35 353 66 729 278 1046 81 120 253
298 378 390 167 124 410 231 632 278 114 25 410 35 528 18 114 -16 293 -65
396 -107 85 -34 262 -127 293 -153 6 -5 43 -33 81 -61 98 -72 247 -227 328
-339 80 -112 183 -316 227 -451 26 -80 37 -102 63 -120 62 -44 144 -21 174 50
13 33 13 42 -3 101 -25 92 -68 200 -123 311 -238 473 -659 814 -1182 954 -52
14 -110 27 -129 30 -126 20 -189 27 -298 29 -67 2 -126 8 -131 13 -4 5 -27 68
-51 139 -55 168 -98 249 -173 331 l-61 67 24 15 c14 9 59 50 101 92 60 60 85
93 117 160 49 104 63 160 68 270 2 47 7 85 11 85 5 -1 42 -5 84 -9 189 -20
378 51 521 197 32 32 58 54 58 48 0 -6 35 -46 78 -89 88 -88 198 -150 312
-177 93 -21 225 -19 320 6 10 3 16 -11 22 -56 10 -75 31 -143 69 -219 l29 -60
-39 -75 c-83 -162 -116 -321 -108 -523 15 -389 225 -713 577 -891 180 -92 306
-108 353 -46 21 30 127 477 127 540 0 28 -7 44 -32 68 -17 17 -38 31 -46 31
-32 0 -142 63 -181 102 -23 24 -54 68 -69 98 -23 48 -27 67 -27 145 0 76 4 99
26 145 46 99 112 157 216 191 144 48 305 -7 393 -136 47 -69 61 -130 58 -249
-4 -151 -16 -143 306 -217 165 -37 267 -56 286 -53 34 7 78 47 85 78 22 97 26
136 26 241 0 296 -97 532 -304 740 -208 208 -445 308 -747 314 l-105 2 -29 37
c-97 122 -229 211 -361 243 -58 13 -70 20 -68 35 1 11 5 55 9 99 27 359 -274
679 -636 677 -120 -1 -181 -16 -287 -67 -69 -34 -111 -63 -165 -115 l-72 -69
-31 37 c-161 195 -389 280 -635 237z m265 -247 c61 -21 118 -60 167 -113 30
-33 88 -135 88 -155 0 -10 -22 -11 -91 -7 -96 7 -126 -1 -162 -41 -41 -46 -27
-132 27 -167 28 -19 56 -23 150 -24 l68 -1 -6 -26 c-21 -81 -127 -190 -224
-229 -90 -37 -208 -38 -297 -5 -33 13 -63 28 -67 33 -3 6 25 40 63 75 73 68
92 105 78 156 -13 45 -47 74 -94 82 -52 7 -69 -1 -146 -72 -33 -30 -64 -52
-69 -49 -17 11 -33 114 -28 194 4 65 11 92 38 146 62 122 181 208 312 224 78
9 117 5 193 -21z m1089 -46 c87 -41 155 -106 197 -190 33 -64 34 -71 34 -182
0 -115 0 -115 -39 -188 -132 -247 -455 -296 -652 -98 -44 45 -104 145 -104
175 0 7 36 10 98 8 113 -2 143 10 169 71 13 32 14 42 2 76 -22 63 -54 79 -164
84 -62 3 -95 8 -95 16 0 24 60 114 103 153 89 82 178 114 299 109 71 -3 98 -9
152 -34z m-1880 -654 c28 -10 55 -23 60 -28 6 -6 -20 -37 -62 -77 -95 -91
-106 -143 -40 -205 24 -22 39 -28 77 -28 43 0 53 5 120 62 58 49 75 59 82 47
40 -61 38 -232 -3 -322 -102 -220 -386 -309 -586 -183 -143 90 -221 258 -192
416 47 257 309 411 544 318z m2421 -137 c88 -42 152 -101 111 -101 -43 0 -254
-128 -333 -202 l-31 -30 -16 53 c-66 222 77 372 269 280z m673 -286 c240 -57
449 -227 553 -449 47 -100 69 -192 76 -309 l6 -108 -24 5 c-13 3 -64 14 -112
25 -49 11 -90 21 -92 23 -2 1 -8 38 -14 80 -28 204 -137 362 -309 451 -96 49
-152 62 -272 62 -59 0 -127 -6 -155 -14 -193 -54 -359 -223 -410 -417 -19 -75
-19 -223 0 -299 36 -135 132 -264 258 -345 47 -30 66 -48 62 -59 -2 -9 -14
-56 -25 -105 -11 -49 -23 -92 -26 -97 -7 -12 -116 44 -184 93 -364 267 -446
777 -185 1143 192 267 533 395 853 320z m-3229 -616 c105 -24 204 -91 259
-175 25 -37 112 -268 112 -296 0 -4 -21 -10 -47 -14 -144 -20 -458 -149 -617
-254 -43 -28 -80 -50 -81 -48 -2 2 -27 66 -55 143 -65 175 -75 263 -40 364 69
206 270 326 469 280z"/>
<path d="M3734 4766 c-70 -31 -248 -266 -324 -429 -95 -204 -125 -344 -125
-587 0 -199 12 -279 62 -432 29 -88 55 -117 110 -125 99 -13 161 81 119 181
-39 93 -59 220 -60 371 -1 151 6 203 46 340 44 153 142 322 258 445 34 36 65
75 71 88 23 57 0 120 -55 146 -41 19 -61 20 -102 2z"/>
<path d="M6305 3769 c-31 -27 -35 -37 -35 -79 0 -108 120 -159 194 -81 102
106 -47 258 -159 160z"/>
<path d="M7595 7590 l1640 -1640 2 127 c2 71 -1 808 -5 1638 l-7 1510 -1635 3
-1635 3 1640 -1641z m567 1213 c126 -125 228 -232 228 -237 0 -6 -17 -27 -37
-48 l-37 -38 -89 87 -89 88 5 -43 c5 -40 34 -93 96 -173 l20 -26 -42 -41 -43
-42 -53 68 c-48 59 -87 130 -120 215 -6 16 -18 27 -29 27 -40 0 -179 83 -257
153 -19 17 -19 18 21 58 l41 41 82 -56 c45 -31 87 -56 94 -57 7 0 22 -2 35 -5
12 -2 22 -1 22 3 0 4 -37 45 -82 90 l-82 83 39 40 c21 22 41 40 44 40 3 0 108
-102 233 -227z m-22 -568 l-44 -45 -108 107 c-90 90 -109 104 -122 94 -13 -11
-10 -19 21 -59 55 -72 76 -126 71 -184 -6 -54 -27 -84 -75 -104 -40 -17 -83
-18 -120 -2 -87 37 -247 184 -320 294 -44 67 -55 141 -28 193 20 40 87 73 131
65 45 -8 115 -42 157 -75 36 -29 57 -31 57 -6 0 6 -46 58 -102 114 l-102 103
44 45 45 45 270 -270 270 -270 -45 -45z m496 90 c47 -19 110 -80 133 -129 27
-55 28 -134 1 -185 -39 -77 -137 -141 -214 -141 -42 0 -131 47 -167 87 -72 83
-86 165 -43 251 57 114 177 162 290 117z m-328 -328 c52 -53 53 -53 32 -72
-11 -10 -20 -23 -20 -29 0 -6 49 -61 110 -121 l109 -109 26 24 26 24 54 -55
55 -54 -133 -133 -132 -132 -225 225 -225 225 130 130 c71 71 132 130 135 130
3 0 29 -24 58 -53z m674 6 c26 -26 48 -52 48 -58 0 -6 -22 -33 -50 -60 -27
-27 -50 -54 -50 -59 0 -6 16 -26 35 -46 l35 -36 -48 -47 -48 -47 -39 40 -39
40 -53 -52 -53 -52 -52 49 c-29 28 -55 51 -57 53 -5 3 310 322 319 322 2 0 26
-21 52 -47z"/>
<path d="M7540 8429 c0 -63 217 -271 264 -253 41 16 1 80 -123 197 -64 60 -89
77 -112 77 -23 0 -29 -4 -29 -21z"/>
<path d="M8516 8179 c-60 -47 -68 -114 -18 -147 44 -29 96 -11 133 45 24 36
24 64 -2 97 -26 33 -75 35 -113 5z"/>
<path d="M8202 7788 c-7 -7 -12 -17 -12 -23 0 -6 49 -60 110 -120 109 -108
109 -109 130 -90 l21 19 -113 113 c-62 62 -115 113 -118 113 -3 0 -11 -5 -18
-12z"/>
<path d="M780 2417 l0 -1637 863 -1 c474 0 1212 -1 1640 -2 427 -2 776 0 775
3 -1 3 -739 741 -1640 1640 l-1638 1635 0 -1638z m1155 65 c77 -37 139 -108
164 -184 26 -81 -36 -176 -122 -185 -35 -4 -56 0 -95 20 l-50 25 -31 -32 -31
-32 60 -59 c33 -33 60 -64 59 -70 0 -5 -13 -20 -28 -32 l-28 -22 -162 163
-162 162 31 29 30 29 65 -64 65 -65 30 31 31 30 -25 55 c-14 30 -26 64 -26 77
0 39 26 88 61 115 52 39 99 41 164 9z m464 -447 l144 -144 -33 -27 -32 -27
-108 108 c-96 95 -111 107 -125 95 -14 -12 -4 -25 91 -121 l108 -109 -29 -30
-29 -30 -108 107 c-102 102 -109 107 -125 90 -17 -16 -12 -23 95 -130 l112
-112 -27 -28 -27 -27 -58 57 -58 57 -22 -22 -22 -22 64 -65 65 -65 -30 -30
-30 -30 -165 165 -164 164 24 26 c13 14 28 25 35 25 6 0 37 -27 70 -60 55 -56
60 -59 77 -43 27 24 23 34 -32 88 l-50 49 117 118 c65 65 120 118 123 118 3 0
70 -65 149 -145z m-924 -15 c-7 -21 126 -153 146 -145 9 3 28 -8 47 -28 l32
-33 -65 -64 -65 -65 -142 143 -143 142 65 65 64 65 33 -32 c20 -19 31 -38 28
-48z m-55 -205 c162 -162 164 -164 145 -185 -10 -11 -23 -20 -29 -20 -6 0 -39
28 -73 62 -35 34 -63 58 -63 52 0 -5 23 -32 50 -59 l50 -49 -52 -53 -52 -53
-108 107 c-59 59 -110 105 -113 102 -3 -3 46 -56 107 -117 l113 -111 -23 -23
-22 -23 -147 147 -148 148 50 50 49 50 106 -105 c58 -58 110 -105 115 -105 5
0 -40 49 -100 110 -107 108 -109 109 -90 130 10 11 23 20 29 20 6 0 34 -23 63
-52 29 -29 53 -48 53 -42 0 5 -27 36 -60 69 -33 33 -60 64 -60 69 0 11 30 46
39 46 3 0 80 -74 171 -165z m453 -173 c48 -48 87 -92 87 -98 0 -24 -145 -146
-220 -184 -66 -34 -165 -32 -244 4 l-59 27 31 31 c30 31 32 31 72 18 87 -29
167 -5 257 74 l44 39 -55 56 c-31 31 -56 61 -56 66 0 10 40 55 49 55 4 0 46
-39 94 -88z m132 -262 l-69 -69 24 -26 24 -25 -29 -30 -29 -30 -25 25 -26 25
-82 -82 -83 -82 -30 29 c-16 16 -30 33 -30 39 0 6 80 91 177 188 l178 178 35
-35 35 -35 -70 -70z"/>
<path d="M1832 2394 c-43 -30 -22 -110 44 -160 96 -74 183 20 103 111 -55 62
-105 79 -147 49z"/>
<path d="M1410 1952 c0 -14 139 -146 147 -139 4 4 -24 39 -62 77 -66 66 -85
80 -85 62z"/>
</g>
</svg>
